<svg width="515" height="436" fill="none" xmlns="http://www.w3.org/2000/svg"><path d="M95.5 434.5l44.078-10.172a99.997 99.997 0 0071.756-63.998l12.103-34.108a100.022 100.022 0 016.196-13.969l27.815-51.657a100.204 100.204 0 018.047-12.59l11.184-14.911a99.995 99.995 0 0152.925-36.265l39.916-11.226a90.934 90.934 0 0154.447 1.634l30.245 10.502a40.032 40.032 0 0041.534-9.605v0a40.035 40.035 0 008.22-44.38l-12.942-29.314c-5.303-12.012-18.265-18.845-31.205-16.61v0c-32.945 5.689-32.323 54.01 1.013 56.554v0a28.383 28.383 0 0028.697-18.234l6.691-17.639c10.409-27.442-3.186-58.152-30.499-68.895L401.43 24.329a99.998 99.998 0 00-72.906-.117L288 40l-71.674 20.237A100 100 0 01189.153 64H139L67 51" stroke="#ECECEC" stroke-width="3" stroke-dasharray="10 10"/><g clip-path="url(#clip0)" fill="#ECECEC"><path d="M37.442 15.89l-2.652-.631a3.118 3.118 0 00-3.75 2.308 3.095 3.095 0 00.379 2.353 3.09 3.09 0 001.35 1.197l-.948 1.061-2.872-.683a3.116 3.116 0 00-3.748 2.309 3.116 3.116 0 001.924 3.628l-5.773 6.46a212.032 212.032 0 00-3.839-.955c-3.535-.84-6.946-1.194-9.606-.994-4.494.338-5.863 2.198-6.22 3.698-.357 1.5.028 3.777 3.89 6.103 2.284 1.375 5.489 2.596 9.024 3.437 1.227.291 2.518.584 3.857.876l2.248 8.367a3.116 3.116 0 00-3.353 2.373 3.117 3.117 0 002.308 3.749l2.872.683.37 1.375a3.093 3.093 0 00-1.746.461 3.093 3.093 0 00-1.396 1.93 3.116 3.116 0 002.308 3.75l2.652.63 2.66 9.901a.994.994 0 00.73.71l3.48.827a1.003 1.003 0 001.22-.887L35.263 49.3c8.298 1.456 16.494 2.732 22.326 3.606l1.435 7.68a.993.993 0 00.747.784l4.124.981a.994.994 0 001.196-.737l4.905-20.62a1.003 1.003 0 00-.737-1.197l-4.124-.98a.993.993 0 00-1.02.363l-4.739 6.211c-5.6-1.846-13.494-4.395-21.559-6.831l1.26-3.088a1.003 1.003 0 00-.668-1.336 1.002 1.002 0 00-1.172.585l-1.331 3.264a444.122 444.122 0 00-12.396-3.528l21.85-24.447 1.777.423-8.222 20.171a.993.993 0 101.84.75l8.66-21.245a1.003 1.003 0 00-.69-1.34l-3.48-.829a.994.994 0 00-.972.305l-6.832 7.644zM20.121 58.613a1.137 1.137 0 01-.835-1.356 1.127 1.127 0 011.356-.835l.641.152.664 2.473-1.826-.434zm2.408 8.198a1.127 1.127 0 01.52-2.191l.422.1.664 2.473-1.606-.382zm8.393 11.8l-1.776-.422-8.505-31.666c3.981.832 8.309 1.653 12.658 2.43l-2.377 29.659zM60.86 59.588l-1.19-6.371c2.333.345 4.134.602 5.198.753l-1.479 6.22-2.53-.602zm4.47-7.56c-5.374-.758-33.674-4.833-50.27-8.78-3.292-.782-6.376-1.951-8.458-3.206-1.564-.941-3.35-2.39-2.982-3.94.369-1.55 2.616-2.04 4.437-2.176 2.424-.183 5.703.162 8.996.946 16.594 3.946 43.699 13.05 48.84 14.791l-.563 2.365zM65.304 40.9l2.53.601-1.48 6.22a880.49 880.49 0 00-4.981-1.669l3.931-5.152zM33.81 19.383a1.127 1.127 0 01.521-2.19l1.607.381-1.706 1.91-.422-.101zm-5.84 6.236a1.128 1.128 0 01-.836-1.356 1.137 1.137 0 011.356-.835l1.827.435-1.707 1.91-.64-.154zM52.903 11.87l11.665 2.774a1.004 1.004 0 001.176-.662 1.004 1.004 0 00-.716-1.271L53.363 9.935a.993.993 0 10-.46 1.934z"/><path d="M51.976 15.769a.993.993 0 10-.46 1.933l7.29 1.734a1.004 1.004 0 001.176-.662 1.004 1.004 0 00-.716-1.271l-7.29-1.734zM49.13 21.254a.993.993 0 10-.46 1.934l5.104 1.213a1.003 1.003 0 001.176-.662 1.003 1.003 0 00-.716-1.271l-5.103-1.214zM35.971 80.384a.994.994 0 00.737 1.197l11.665 2.774a.993.993 0 001.197-.736 1.004 1.004 0 00-.737-1.197l-11.665-2.774a.994.994 0 00-1.197.736zM37.359 74.552a.993.993 0 00.736 1.196l7.291 1.734a1.003 1.003 0 001.175-.661 1.003 1.003 0 00-.715-1.271l-7.29-1.735a.993.993 0 00-1.197.737zM44.324 70.046a1.004 1.004 0 00-.736-1.196l-5.104-1.214a.994.994 0 00-.46 1.933l5.104 1.214a.994.994 0 001.196-.737z"/></g><defs><clipPath id="clip0"><path fill="#fff" transform="rotate(-121.621 43.568 36.492)" d="M0 0h67.395v67.395H0z"/></clipPath></defs></svg>