<svg width="69" height="129" fill="none" xmlns="http://www.w3.org/2000/svg"><path d="M45.06 98.838c-.745-3.262-1.84-6.454-3.081-8.986l-3.365 1.633c1.113 2.271 2.102 5.163 2.782 8.143l3.665-.79zM42.335 106.839l3.757-.014a35.815 35.815 0 00-.324-4.014l-3.724.447c.169 1.247.267 2.452.29 3.581z" fill="#fff" fill-opacity=".1"/><path d="M54.265 41.656l5.743.004a6.79 6.79 0 006.715-5.876c.734-5.498.535-10.637-.59-15.274l-3.653.84a31.54 31.54 0 01.64 3.53l-9.094 1.146a29.279 29.279 0 00-2.448-6.317l8.375-4.986a26.381 26.381 0 011.447 3.145l3.507-1.31c-2.17-5.672-5.52-9.417-7.95-11.559a6.876 6.876 0 00-5.006-1.732 6.705 6.705 0 00-4.718 2.346l-4.186 4.885c-2.764-1.613-5.836-2.483-9.055-2.508-1.453-3.213-3.66-5.668-3.765-5.784L28.718.542l-1.357 1.743c-.308.395-7.55 9.697-8.01 10.317-.944 1.27-2.506 2.026-4.18 2.025l-12.51-.01.125 7.455c.059 3.491 2.922 6.334 6.383 6.336l1.017.001c5.342.004 10.498.194 14.85 2.447 2.437 1.26 4.703 1.733 6.761 1.414-2.827 4.945-7.544 11.188-14.859 15.519l-.113.073C10.482 52.276 6.452 56.497 4.14 61.144l3.368 1.749a21.46 21.46 0 012.047-3.291l10.51 5.842c-.518 1.876-.834 3.867-.97 6.009L5.251 72.647c.088-2.443.413-4.6.992-6.54l-3.605-1.151c-.85 2.85-1.232 6.042-1.17 9.76.115 6.873 2.557 13.627 6.877 19.019 4.296 5.362 10.301 9.19 16.917 10.786 8.594 3.116 11.315 7.402 11.008 9.379-.219 1.408-2.067 2.282-4.824 2.28a14.314 14.314 0 01-7.834-2.303c-1.65-1.059-3.681-.855-5.053.507-1.36 1.35-1.591 3.376-.576 5.041 3.417 5.608 9.588 9.096 16.104 9.101 7.946.006 13.658-2.757 16.978-8.213 2.682-4.406 3.652-10.546 2.805-17.756-.65-5.53-2.394-11.6-4.666-16.233-1.484-3.025-2.522-6.427-3.063-9.988l6.421 3.708a9.443 9.443 0 004.723 1.29 9.201 9.201 0 004.68-1.282c2.916-1.713 4.623-4.783 4.565-8.212l-.183-10.996a9.601 9.601 0 00-4.84-8.218c-2.972-1.717-6.488-1.72-9.404-.008l-2.99 1.757a40.758 40.758 0 011.635-3.326 34.85 34.85 0 003.517-9.393zm9.121-12.977a43.444 43.444 0 01-.392 6.534 3.076 3.076 0 01-3.05 2.653l-5.067-.004a33.84 33.84 0 00-.114-8.097l8.623-1.087zM50.097 8.122a3.054 3.054 0 012.15-1.069c.83-.05 1.634.227 2.263.782 1.01.89 2.205 2.107 3.383 3.674l-8.336 4.962a22.949 22.949 0 00-3.409-3.74l3.95-4.61zM32.334 38.547c1.845 1.2 2.748 2.853 2.751 5.017.003 2.312-1.142 4.564-3.064 6.023-.64.486-1.253.972-1.841 1.458l-4.913-4.622c2.868-2.529 5.197-5.255 7.067-7.876zM12.068 56.7c1.841-1.869 4.11-3.736 6.876-5.665a41.504 41.504 0 003.378-2.239l5.058 4.759c-2.692 2.637-4.664 5.346-6.015 8.312L12.068 56.7zm8.212 26.228l-12.015 3.83a27.528 27.528 0 01-2.944-10.303l13.722-1.184c.088 2.59.503 5.155 1.237 7.657zm-9.025 8.454a27.15 27.15 0 01-.954-1.273l11.077-3.531a12.605 12.605 0 01-3.12 10.983 27.405 27.405 0 01-7.003-6.179zM54.04 55.906c1.749-1.027 3.858-1.026 5.642.005a5.767 5.767 0 012.527 2.962l-10.14 1.796.715 3.738 9.832-1.743.117 6.983-9.784-1.66-.56 3.741 10.178 1.727a5.488 5.488 0 01-2.536 3.31c-1.75 1.027-3.859 1.025-5.642-.005L43.07 70.223a9.389 9.389 0 00.762-3.898 9.59 9.59 0 00-.893-3.9l11.1-6.519zm-16.493 5.262l1.32 1.715a5.759 5.759 0 011.204 3.44 5.586 5.586 0 01-1.089 3.436l-1.263 1.713 4.372 2.525c.409 4.972 1.696 9.779 3.747 13.961 2.09 4.26 3.695 9.86 4.297 14.98.52 4.434.546 10.697-2.285 15.35-2.606 4.281-7.257 6.449-13.826 6.444-5.2-.004-10.122-2.783-12.845-7.251-.05-.081-.123-.203.044-.369.187-.186.338-.09.41-.043 3.004 1.925 6.326 2.903 9.877 2.906 3.69.003 7.855-1.42 8.477-5.422.594-3.819-2.616-9.682-13.614-13.638l-.204-.06a26.703 26.703 0 01-4.444-1.483c3.545-4.368 4.644-10.417 2.69-15.821a27.22 27.22 0 01-1.631-8.818c-.161-9.604 2.965-15.594 11.534-22.1 2.84-2.157 4.534-5.525 4.53-9.008-.004-2.531-.835-5.846-4.449-8.216 3.198-5.274 4.472-9.524 4.57-9.865l-3.607-1.139c-.008.029-.911 2.867-3.209 3.833-1.461.615-3.294.362-5.447-.752-5.105-2.641-10.992-2.867-16.583-2.871l-1.017-.001c-1.388-.001-2.535-1.14-2.559-2.54l-.06-3.66 8.747.007c2.837.002 5.506-1.31 7.14-3.51.295-.396 3.999-5.16 6.495-8.366.723 1.043 1.566 2.447 2.108 3.96l.46 1.284 2.496-.005c5.5.004 10.53 3.178 13.8 8.709 4.88 8.25 4.769 19.504-.28 28.67a44.483 44.483 0 00-3.508 8.248l-6.398 3.757z" fill="#fff" fill-opacity=".1"/><path d="M24.793 17.034l3.851.003.064 3.79-3.852-.003-.063-3.79z" fill="#fff" fill-opacity=".1"/></svg>