<svg width="39" height="39" fill="none" xmlns="http://www.w3.org/2000/svg"><path d="M14.937 32.35c.179 1.37 1.342 2.442 2.65 2.442h3.43c1.306 0 2.47-1.073 2.647-2.43l1.266-8.899 2.602-1.615c.36-.224.553-.639.494-1.058l-.97-6.805c-.387-2.548-2.657-4.622-5.06-4.622h-.088a5.824 5.824 0 01-2.607.614c-.935 0-1.82-.222-2.606-.614h-.089c-2.403 0-4.672 2.074-5.06 4.632l-.969 6.795c-.06.42.134.834.494 1.058l2.602 1.616 1.264 8.886zM19.302 8.137c2.232 0 4.042-1.821 4.042-4.068S21.534 0 19.302 0c-2.233 0-4.043 1.822-4.043 4.069s1.81 4.068 4.043 4.068z" fill="#B0B9CC"/><path d="M26.103 28.274l-.617 4.339a4.689 4.689 0 01-1.478 2.827 4.424 4.424 0 01-2.991 1.19h-3.43a4.42 4.42 0 01-2.995-1.193 4.71 4.71 0 01-1.476-2.837l-.605-4.252c-4.14.825-7.328 2.46-7.328 5.004C5.183 37.232 12.604 39 19.5 39s14.318-1.767 14.318-5.648c0-2.622-3.39-4.28-7.715-5.078z" fill="#B0B9CC"/><path d="M22.215 20.048h1.2v2.048h-1.2V24h-2.224v-1.904h-5.296v-2.048l3.728-7.248h2.368l-3.712 7.248h2.912v-2.656h2.224v2.656z" fill="#fff"/></svg>