<svg width="30" height="34" fill="none" xmlns="http://www.w3.org/2000/svg"><g clip-path="url(#clip0)"><path d="M25.582 18.149v10.683c0 .952-.682 1.725-1.523 1.725H5.942c-.84 0-1.522-.773-1.522-1.725V18.149c0-.596.27-1.15.715-1.463l9.059-6.412c.493-.35 1.12-.35 1.613 0l9.058 6.412c.447.314.718.867.718 1.463zm3.704-4.769L15.808 3.841a1.372 1.372 0 00-1.613 0l-13.48 9.54c-.712.504-.929 1.568-.484 2.377.444.809 1.382 1.055 2.098.55L15 7.338l12.67 8.968c.252.178.53.262.806.262.508 0 1.004-.287 1.292-.811.446-.81.23-1.872-.482-2.377z" fill="#B0B9CC"/><path d="M18.67 26.316h-7.488v-1.648l3.824-3.936c.854-.907 1.28-1.654 1.28-2.24 0-.438-.139-.79-.416-1.056-.266-.267-.613-.4-1.04-.4-.853 0-1.477.437-1.872 1.312l-1.856-1.088c.341-.758.838-1.339 1.488-1.744a4.063 4.063 0 012.208-.624c1.014 0 1.883.32 2.608.96.726.63 1.088 1.482 1.088 2.56 0 1.163-.613 2.357-1.84 3.584l-2.192 2.192h4.208v2.128z" fill="#fff"/></g><defs><clipPath id="clip0"><path fill="#fff" d="M0 0h30v34H0z"/></clipPath></defs></svg>