<svg width="32" height="32" fill="none" xmlns="http://www.w3.org/2000/svg"><path d="M3.733 28.267h24.534V3.733H3.733v24.534zM4.267 2.667a.533.533 0 00.533-.534v-1.6a.533.533 0 10-1.067 0v1.6c0 .295.24.534.534.534zM4.267 29.333a.533.533 0 00-.534.534v1.6a.533.533 0 101.067 0v-1.6a.533.533 0 00-.533-.534zM27.733 0a.533.533 0 00-.533.533v1.6a.533.533 0 101.067 0v-1.6A.533.533 0 0027.733 0zM27.733 29.333a.533.533 0 00-.533.534v1.6a.533.533 0 101.067 0v-1.6a.533.533 0 00-.534-.534zM29.867 4.8h1.6a.533.533 0 100-1.067h-1.6a.533.533 0 100 1.067zM2.133 3.733h-1.6a.533.533 0 100 1.067h1.6a.533.533 0 100-1.067zM31.467 27.2h-1.6a.533.533 0 100 1.067h1.6a.533.533 0 100-1.067zM2.133 27.2h-1.6a.533.533 0 100 1.067h1.6a.533.533 0 100-1.067z" fill="#B0B9CC"/><path d="M8.758 11.84l2.944-1.04h1.92V22h-2.208v-8.864l-2.112.592-.544-1.888zm13.02 4.336c1.034.619 1.551 1.52 1.551 2.704 0 1.035-.363 1.85-1.088 2.448-.715.597-1.69.896-2.928.896-1.248 0-2.23-.299-2.944-.896-.715-.597-1.072-1.413-1.072-2.448 0-1.173.512-2.075 1.536-2.704-.779-.555-1.168-1.328-1.168-2.32 0-1.035.347-1.84 1.04-2.416.704-.576 1.573-.864 2.608-.864 1.045 0 1.91.288 2.592.864.693.576 1.04 1.381 1.04 2.416 0 .992-.39 1.765-1.168 2.32zm-1.025-2.208c0-.405-.133-.725-.4-.96s-.613-.352-1.04-.352c-.427 0-.773.117-1.04.352s-.4.555-.4.96c0 .416.133.741.4.976s.613.352 1.04.352c.427 0 .773-.117 1.04-.352s.4-.56.4-.976zm-.112 5.76c.33-.277.496-.656.496-1.136 0-.48-.165-.853-.496-1.12-.33-.277-.773-.416-1.328-.416s-.997.139-1.328.416c-.33.267-.496.64-.496 1.12 0 .48.165.859.496 1.136.33.277.773.416 1.328.416s.997-.139 1.328-.416z" fill="#fff"/></svg>