<svg width="99" height="87" fill="none" xmlns="http://www.w3.org/2000/svg"><path d="M93.697 69.275c.77-.522 1.326-.9 2.569-.9.784 0 1.425-.636 1.433-1.42a1.404 1.404 0 00-1.407-1.42c-2.12 0-3.26.773-4.175 1.395-.77.522-1.327.9-2.57.9-1.242 0-1.79-.377-2.552-.9-.904-.62-2.03-1.394-4.149-1.394-2.12 0-3.259.774-4.175 1.395-.77.523-1.326.9-2.568.9s-1.791-.377-2.552-.9c-.904-.62-2.03-1.394-4.149-1.394s-3.26.774-4.175 1.395c-.23.156-.443.297-.659.421l-5.127-2.567c-9.009-4.51-19.002-6.798-29.045-6.752l7.335-28.69 12.079 2.982a1.434 1.434 0 001.728-1.039 1.406 1.406 0 00-1.023-1.718l-2.59-.64c.76-5.781.795-11.359.087-15.826-.256-1.612-.6-3.024-1.028-4.23 6.72 4.27 11.745 13.312 12.332 22.87l-2.343-.58a1.434 1.434 0 00-1.728 1.04 1.406 1.406 0 001.023 1.718l14.18 3.502a1.42 1.42 0 001.277-.31c.351-.305.534-.76.489-1.221-.667-6.778-4.09-13.823-9.637-19.837-5.193-5.632-11.7-9.756-18.452-11.725l.605-2.364A1.406 1.406 0 0043.706.248a1.435 1.435 0 00-1.728 1.039l-.604 2.364c-6.897-1.402-14.615-.79-21.9 1.76C11.693 8.135 5.29 12.753 1.442 18.416c-.261.385-.32.872-.157 1.304.164.432.528.755.977.866l32.717 8.078-7.53 29.451a64.218 64.218 0 00-10.045 1.3 1.435 1.435 0 00-1.11 1.683 1.406 1.406 0 001.672 1.095A61.368 61.368 0 0126.713 61l-1.473 5.76a5.314 5.314 0 00-3.453 2.148 5.247 5.247 0 00-1.075-.114c-2.892 0-5.267 2.354-5.293 5.246a1.404 1.404 0 001.407 1.42c.784 0 1.426-.636 1.433-1.42a2.435 2.435 0 012.427-2.406c.04 0 .08.005.119.007-.006.097-.01.196-.011.294a1.404 1.404 0 001.407 1.42c.784 0 1.425-.636 1.433-1.42a2.435 2.435 0 012.427-2.405 2.381 2.381 0 012.383 2.405 1.404 1.404 0 001.407 1.42c.784 0 1.426-.636 1.433-1.42.001-.1-.001-.197-.006-.295.04-.002.079-.007.12-.007a2.381 2.381 0 012.382 2.405 1.404 1.404 0 001.407 1.42c.785 0 1.426-.636 1.434-1.42a5.193 5.193 0 00-6.275-5.13 5.205 5.205 0 00-2.264-1.822l1.587-6.206c9.841-.16 19.656 2.03 28.482 6.449l22.391 11.21c.203.102.418.15.631.15.522 0 1.026-.288 1.28-.787a1.41 1.41 0 00-.62-1.904l-14.32-7.17c.492-.275 1.02-.45 1.863-.45 1.242 0 1.792.378 2.552.9.905.622 2.03 1.395 4.15 1.395 2.118 0 3.258-.774 4.174-1.395.77-.523 1.326-.9 2.568-.9 1.242-.001 1.792.377 2.553.9.904.62 2.03 1.394 4.149 1.394 2.12 0 3.259-.774 4.175-1.396zm-64.73-45.027C33.576 12.48 39.601 6.112 42.051 6.72c2.45.605 4.697 9.014 3.101 21.525l-16.187-3.997zM14.802 20.75C19.917 12.6 28.695 6.968 36.67 6.326c-.956.864-1.94 1.949-2.94 3.25-2.773 3.608-5.425 8.54-7.535 13.988L14.803 20.75zm54.293 13.406l-6.901-1.704c-.213-6.226-2.173-12.478-5.576-17.719-.21-.323-.425-.638-.643-.95 6.708 5.373 11.714 12.845 13.12 20.373zM26.384 6.478c-.342.173-.683.35-1.024.538-5.52 3.038-10.252 7.637-13.434 13.024l-6.902-1.704c4.859-5.981 12.864-10.24 21.36-11.858zM96.728 83.52l-8.989-4.501a1.43 1.43 0 00-1.91.637 1.41 1.41 0 00.62 1.904l8.989 4.501c.202.101.418.15.63.15.522 0 1.027-.29 1.28-.787a1.41 1.41 0 00-.62-1.905z" fill="#fff"/><path d="M10.88 61.186a65.38 65.38 0 00-4.326 1.57l-4.851 1.957a1.431 1.431 0 00-.8 1.849 1.404 1.404 0 001.841.783l4.852-1.957a62.496 62.496 0 014.135-1.501 1.433 1.433 0 00.93-1.789 1.407 1.407 0 00-1.78-.912zM48.521 69.859a1.404 1.404 0 00-1.407-1.42h-1.911c-.785 0-1.426.637-1.433 1.42a1.404 1.404 0 001.406 1.42h1.912c.784 0 1.426-.636 1.433-1.42zM51.228 78.396h-1.912c-.784 0-1.425.636-1.432 1.42a1.404 1.404 0 001.406 1.419h1.912c.784 0 1.426-.636 1.433-1.42a1.404 1.404 0 00-1.407-1.42zM70.343 78.012H68.43c-.784 0-1.425.636-1.432 1.42a1.404 1.404 0 001.406 1.42h1.912c.784 0 1.426-.636 1.433-1.42a1.404 1.404 0 00-1.406-1.42zM9.201 76.672H7.29c-.784 0-1.425.636-1.433 1.42a1.404 1.404 0 001.407 1.42h1.912c.784 0 1.426-.636 1.433-1.42a1.404 1.404 0 00-1.407-1.42zM30.395 78.779h-1.912c-.784 0-1.426.635-1.433 1.42a1.404 1.404 0 001.407 1.419h1.912c.784 0 1.425-.636 1.432-1.42a1.404 1.404 0 00-1.406-1.42z" fill="#fff"/></svg>