<svg width="82" height="82" fill="none" xmlns="http://www.w3.org/2000/svg"><g clip-path="url(#clip0)" fill="#fff"><path d="M50.92 34.18c-2.65 0-5.226.513-7.653 1.527a1.577 1.577 0 001.215 2.91 16.614 16.614 0 016.438-1.284c9.217 0 16.715 7.498 16.715 16.715 0 9.216-7.498 16.714-16.715 16.714-9.216 0-16.714-7.498-16.714-16.715 0-2.228.43-4.391 1.28-6.428a1.577 1.577 0 10-2.91-1.214 19.753 19.753 0 00-1.524 7.642c0 10.956 8.913 19.869 19.868 19.869 10.956 0 19.869-8.913 19.869-19.868 0-10.956-8.913-19.869-19.869-19.869z"/><path d="M50.92 66.978c7.13 0 12.93-5.8 12.93-12.93s-5.8-12.93-12.93-12.93-12.93 5.8-12.93 12.93 5.8 12.93 12.93 12.93zm0-22.707c5.391 0 9.777 4.386 9.777 9.777 0 5.39-4.386 9.776-9.777 9.776-5.39 0-9.776-4.385-9.776-9.776 0-5.39 4.386-9.777 9.776-9.777z"/><path d="M73.513 26.61h-4.797l-5.505-9.317c-.284-.48-.8-.774-1.358-.774H39.987c-.557 0-1.073.294-1.357.774l-5.506 9.317h-9.011v-1.892a5.683 5.683 0 00-5.677-5.677 5.683 5.683 0 00-5.676 5.677v1.892H8.773c-4.41 0-7.997 3.588-7.997 7.998v38.88c0 4.41 3.587 7.997 7.997 7.997h64.74c4.41 0 7.997-3.588 7.997-7.998v-38.88c0-4.41-3.587-7.997-7.997-7.997zm-32.626-6.938h20.066l4.1 6.938H36.788l4.1-6.938zm-24.974 5.046a2.526 2.526 0 012.523-2.523 2.526 2.526 0 012.523 2.523v1.892h-5.046v-1.892zm62.444 48.77a4.849 4.849 0 01-4.844 4.843H8.773a4.849 4.849 0 01-4.844-4.844v-38.88a4.849 4.849 0 014.844-4.843h64.74a4.849 4.849 0 014.843 4.844v38.88z"/><path d="M50.92 50.973a3.078 3.078 0 013.075 3.075 1.577 1.577 0 103.154 0 6.236 6.236 0 00-6.229-6.229 1.577 1.577 0 000 3.154zM50.92 12.37c.871 0 1.577-.706 1.577-1.577V2.377a1.577 1.577 0 00-3.154 0v8.416c0 .871.706 1.577 1.577 1.577zM58.424 12.37c.403 0 .807-.154 1.115-.461l5.785-5.786a1.577 1.577 0 00-2.23-2.23L57.31 9.679a1.577 1.577 0 001.115 2.691zM42.302 11.909c.308.307.711.461 1.115.461a1.577 1.577 0 001.115-2.692l-5.786-5.785a1.577 1.577 0 00-2.23 2.23l5.786 5.786zM22.536 39.54h-8.2a1.577 1.577 0 000 3.154h8.2a1.577 1.577 0 100-3.154zM37.983 42.694c.415 0 .821-.169 1.115-.462.293-.293.462-.699.462-1.115 0-.414-.169-.821-.462-1.114a1.59 1.59 0 00-1.115-.462 1.59 1.59 0 00-1.115.462c-.295.293-.462.7-.462 1.114 0 .415.167.822.462 1.115.293.294.699.462 1.115.462z"/></g><defs><clipPath id="clip0"><path fill="#fff" transform="translate(.775 .775)" d="M0 0h80.735v80.735H0z"/></clipPath></defs></svg>