<svg width="70" height="70" fill="none" xmlns="http://www.w3.org/2000/svg"><g clip-path="url(#clip0)"><path d="M40.514 69.118a2.066 2.066 0 01-1.98-1.483l-.982-3.354-7.825-11.319-1.81.82-.887 1.763a4.369 4.369 0 01-2.857 2.28 4.37 4.37 0 01-3.59-.684L14.62 52.89l-5.071 2.674a2.055 2.055 0 01-2.284-.241 2.056 2.056 0 01-.645-2.206c.514-1.623 3.32-7.46 5.365-9.232a2.066 2.066 0 012.835.12l2.416 2.49 3.682 1.702.144-1.6a10.819 10.819 0 01-.125-9.297l1.226-2.693 1.617-7.338h-4.175l-.578 3.04c.516.667 1.397 2.037 1.236 3.43-.287 2.5-2.365 3.7-4.266 3.589-1.902-.11-3.828-1.537-3.828-4.054v-.929a1.004 1.004 0 112.009 0v.929c0 1.43 1.042 1.997 1.934 2.048.892.052 1.992-.393 2.156-1.814.084-.728-.675-1.826-1.057-2.243a1.01 1.01 0 01-.246-.867l.822-4.322c.09-.474.504-.817.987-.817h1.622v-3.782c-2.066.24-3.782.517-4.8.747a1.807 1.807 0 00-1.418 1.771v4.333a1.004 1.004 0 11-2.009 0v-4.333a3.805 3.805 0 012.985-3.731c2.324-.524 8.138-1.29 13.57-1.347l.253-.558c-1.234-1.128-3.826-3.992-3.826-8.15 0-3.573 1.557-6.456 4.383-8.12a1.005 1.005 0 011.02 1.73c-2.189 1.289-3.394 3.558-3.394 6.39 0 4.337 3.604 7.035 3.64 7.062.382.281.516.791.32 1.223l-.492 1.09 4.687 3.392.846-1.246a1.004 1.004 0 01.94-1.36c3.245 0 5.631-.207 6.56-2.435-1.849-.265-2.972-1.018-3.028-1.055a1.004 1.004 0 011.126-1.664c.027.018.89.57 2.312.747.012-.202.018-.413.018-.634 0-.337.169-.651.449-.837.72-.478.893-.852.884-.983-.01-.131-.223-.448-.966-.806a1.005 1.005 0 01-.57-.905c0-3.116-.49-5.247-1.545-6.709-1.23-1.703-3.325-2.531-6.408-2.531-.734 0-1.439.05-2.094.15a1.005 1.005 0 01-.303-1.986A15.972 15.972 0 0135.933.55c8.566 0 9.865 5.907 9.957 10.651 1.18.731 1.494 1.566 1.536 2.171.043.633-.17 1.549-1.34 2.477-.183 4.413-2.724 5.844-5.364 6.308 2.68 1.71 4.891 3.639 5.91 4.577l2.523-1.704c.108-.838.454-2.427 1.551-3.298 1.972-1.565 4.287-.944 5.555.478 1.268 1.423 1.62 3.794-.16 5.574l-6.507 6.506a3.806 3.806 0 01-4.75.53l-6.351-4.016-.758 1.844a1.004 1.004 0 11-1.858-.764l1.213-2.95a1.004 1.004 0 011.465-.467l1.935 1.223 2.229-3.64c-1.36-1.069-3.056-2.275-4.857-3.25l-1.466 2.161a1.005 1.005 0 01-1.42.25l-5.926-4.287c-2.236.012-4.545.15-6.645.345v3.991h2.625a1.004 1.004 0 01.98 1.221l-1.908 8.663a1 1 0 01-.067.2l-1.27 2.79a8.965 8.965 0 00-.626 1.917h10.38l1.878-4.567a1.005 1.005 0 011.858.764l-1.968 4.787 3.998 8.76a1.005 1.005 0 01-1.828.834l-.27-.592-4.6 2.084 3.666 5.303 3.4-1.982-.49-1.075a1.005 1.005 0 011.827-.834l2.892 6.337h7.195c.84 0 1.588.502 1.907 1.278.32.777.139 1.662-.46 2.253-1.94 1.916-5.344 4.455-10.542 5.664a2.061 2.061 0 01-.468.054zm-.724-4.343l.672 2.295a.055.055 0 00.065.037c4.991-1.16 8.148-3.716 9.586-5.136.016-.016.027-.027.013-.061-.014-.032-.026-.032-.05-.032h-7.04a4.366 4.366 0 01-1.446 2.049c-.537.423-1.15.71-1.8.848zm-3.392-5.695l2.613 3.779a2.37 2.37 0 001.335-.51c.433-.34.728-.81.85-1.339l-1.704-3.733-3.094 1.803zm-16.494-4.89l1.845 1.316a2.363 2.363 0 003.486-.864l.756-1.502-3.15-3.91-.05.567a1.004 1.004 0 01-1.415.825l-1.472 3.569zm-6.564-8.802a.06.06 0 00-.04.015c-1.604 1.39-4.264 6.738-4.764 8.32-.007.022-.011.035.017.058.027.022.038.017.059.006l4.912-2.59a4.413 4.413 0 011.52-4.076l-1.666-1.718a.052.052 0 00-.038-.015zm2.211 5.699l2.674 1.906 1.326-3.215-2.9-1.34a2.393 2.393 0 00-1.1 2.649zm6.411-9.028a8.842 8.842 0 001.967 5.317l3.544 4.402 7.88-3.569-2.806-6.15H21.962zM42.19 30.763l3.729 2.357a1.807 1.807 0 002.256-.251l6.507-6.507c1.01-1.01.675-2.149.08-2.816-.594-.667-1.686-1.13-2.806-.242-.582.462-.817 1.77-.84 2.332a1.005 1.005 0 01-.441.79l-3.584 2.422a1.005 1.005 0 01-1.268-.117 35.116 35.116 0 00-1.537-1.392l-2.096 3.424zm13.385 28.043c-4.174 0-7.57-3.395-7.57-7.57 0-4.174 3.396-7.57 7.57-7.57.989 0 1.95.189 2.86.56a1.004 1.004 0 11-.76 1.86 5.567 5.567 0 00-7.661 5.151 5.567 5.567 0 005.56 5.56 5.567 5.567 0 005.562-5.56 5.529 5.529 0 00-.969-3.138 1.005 1.005 0 011.658-1.135 7.53 7.53 0 011.32 4.272c0 4.174-3.396 7.57-7.57 7.57zM34.83 16.772c-.7 0-1.376-.244-1.952-.713-.893-.727-1.447-1.933-1.447-3.148 0-1.76 1.302-3.085 3.028-3.085.673 0 1.115.167 1.492.348a1.005 1.005 0 01-.87 1.811c-.231-.11-.36-.15-.622-.15-.752 0-1.02.555-1.02 1.076 0 .616.278 1.24.707 1.59.277.225.58.306.902.24a1.005 1.005 0 01.407 1.967 3.085 3.085 0 01-.625.064zm5.83-3.97c-.554 0-1.004-.449-1.004-1.004v-1.083a1.004 1.004 0 112.009 0v1.083c0 .555-.45 1.005-1.005 1.005z" fill="#fff" fill-opacity=".3"/></g><defs><clipPath id="clip0"><path fill="#fff" transform="translate(.549 .549)" d="M0 0h68.569v68.569H0z"/></clipPath></defs></svg>