<svg width="66" height="65" fill="none" xmlns="http://www.w3.org/2000/svg"><g clip-path="url(#clip0)" fill="#ECECEC"><path d="M54.46 1.08a1.675 1.675 0 00-1.405-.594l-.38.027c-4.864.35-10.113.937-12.164 2.65a7.561 7.561 0 00-2.259 3.234l-23.164-.171a3.218 3.218 0 00-2.355.987A3.218 3.218 0 0011.82 9.6l2.13 51.867a3.241 3.241 0 003.22 3.12l21.449.158a3.24 3.24 0 003.265-3.07l2.038-36.461c.207.007.418.012.632.013 2.856.021 6.185-.445 8.09-.711l.377-.053a1.675 1.675 0 001.25-.876c.25-.474.256-1.045.016-1.525l-.17-.342c-1.293-2.6-2.716-5.296-4.155-7.314 1.035-.885 2.015-2.675 2.995-5.473.776-2.215 1.381-4.582 1.743-5.996l.095-.368a1.675 1.675 0 00-.336-1.488zM41.796 29.265a.946.946 0 00-.31-.4l-3.201-2.382-4.762-3.542-7.962-5.925a.948.948 0 00-1.348.223 10.828 10.828 0 00-1.777 7.935 10.823 10.823 0 004.242 6.967c.528.393 1.085.732 1.663 1.02-.3.406-.466.894-.47 1.408a2.396 2.396 0 00.694 1.71l2.865 2.908a2.396 2.396 0 001.7.72 2.396 2.396 0 001.71-.694l2.908-2.866a2.395 2.395 0 00.72-1.7 2.391 2.391 0 00-.49-1.47 10.837 10.837 0 003.682-2.957.942.942 0 00.09-.137l-1.476 26.413-18.399-.135a.949.949 0 10-.014 1.897l18.307.135-.178 3.18a1.346 1.346 0 01-1.356 1.276l-21.45-.159a1.347 1.347 0 01-1.337-1.297l-.13-3.18 2.35.017a.949.949 0 00.014-1.898l-2.442-.018-1.649-40.137 15.52.115a.949.949 0 10.013-1.898l-15.611-.115-.195-4.754c-.015-.372.12-.723.379-.99.259-.268.606-.413.978-.41l26.477.195c.372.003.717.154.972.425.255.27.384.624.364.994l-.266 4.752-9.303-.069a.949.949 0 10-.014 1.898l9.212.068-.72 12.877zm-5.602 4.772l.228.232a.51.51 0 01-.006.727l-2.908 2.865a.51.51 0 01-.726-.006l-2.865-2.908a.51.51 0 01.005-.726l.33-.325a10.805 10.805 0 004.318.306c.514-.067 1.018-.17 1.51-.305.033.05.07.097.114.14zm-1.868-1.717a8.936 8.936 0 01-6.516-1.701 8.935 8.935 0 01-3.501-5.752 8.936 8.936 0 01.951-5.71l1.701 1.266a6.903 6.903 0 002.097 8.52 6.866 6.866 0 004.059 1.36 6.893 6.893 0 004.703-1.8l1.7 1.265a8.938 8.938 0 01-5.194 2.552zm1.934-4.978a5.005 5.005 0 01-6.07.078 5.005 5.005 0 01-1.668-5.836l7.738 5.758zm16.19-4.714l-.068.01c-1.98.277-5.55.776-8.353.682l.086-1.544a.947.947 0 001.782-.636l-.33-1.068 2.053 1.083a.946.946 0 001.282-.397.949.949 0 00-.397-1.282l-2.054-1.083.472-.146a.949.949 0 00-.56-1.813l-1.984.614.248-4.432a5.567 5.567 0 011.534.539c2.141 1.129 5.132 7.146 6.258 9.411l.031.062zm.413-20.16c-.62 2.42-2.252 8.801-4.082 10.453-.583-.644-1.164-1.144-1.734-1.445a7.468 7.468 0 00-2.314-.77l.016-.275 1.118-.934a.947.947 0 00.208.043l2.148.193a.949.949 0 00.17-1.89l-.493-.044 1.782-1.49a.949.949 0 10-1.216-1.456l-1.782 1.49.044-.493a.949.949 0 10-1.89-.17l-.193 2.149a.955.955 0 00.006.212l-.207.173a3.264 3.264 0 00-.54-.77 3.217 3.217 0 00-2.34-1.021l-1.251-.01a5.7 5.7 0 011.415-1.792c1.857-1.552 8.56-2.033 11.083-2.214l.07-.005-.018.066z"/><path d="M16.475 36.683l.783 4.918c.1.636.444 1.194.965 1.573a2.393 2.393 0 001.795.43l4.918-.783a2.414 2.414 0 002.002-2.76l-.782-4.919a2.415 2.415 0 00-2.76-2.002l-4.919.783a2.414 2.414 0 00-2.002 2.76zm2.3-.887l4.918-.782a.515.515 0 01.588.427l.783 4.917a.514.514 0 01-.426.589l-4.918.782a.51.51 0 01-.588-.427l-.783-4.917a.514.514 0 01.426-.589zM27.107 49.845l2.6 2.638a2.404 2.404 0 001.7.718 2.404 2.404 0 001.71-.693l2.637-2.6a2.395 2.395 0 00.72-1.7 2.396 2.396 0 00-.694-1.71l-2.6-2.637a2.414 2.414 0 00-3.41-.025l-2.638 2.599a2.414 2.414 0 00-.025 3.41zm1.357-2.059l2.638-2.599a.512.512 0 01.726.005l2.6 2.638a.51.51 0 01-.006.727l-2.637 2.6a.515.515 0 01-.727-.006l-2.6-2.638a.514.514 0 01.006-.727z"/></g><defs><clipPath id="clip0"><path fill="#fff" transform="rotate(.423 -12.54 161.08)" d="M0 0h64.37v64.37H0z"/></clipPath></defs></svg>