<svg width="24" height="27" fill="none" xmlns="http://www.w3.org/2000/svg"><g clip-path="url(#clip0)"><path d="M20.465 14.412v8.484c0 .756-.545 1.37-1.217 1.37H4.753c-.672 0-1.218-.614-1.218-1.37v-8.484c0-.472.216-.912.572-1.162l7.247-5.091a1.104 1.104 0 011.29 0l7.247 5.091c.358.25.575.689.575 1.162zm2.963-3.787L12.646 3.05a1.104 1.104 0 00-1.29 0L.573 10.625c-.57.401-.744 1.246-.388 1.888.355.643 1.106.839 1.678.437L12 5.827l10.136 7.122c.201.141.424.208.645.208.406 0 .803-.228 1.034-.644.356-.643.183-1.487-.387-1.888z" fill="#122856"/></g><path d="M9.447 12.663l2.576-.91h1.68v9.8h-1.932v-7.756l-1.848.518-.476-1.652z" fill="#fff"/><defs><clipPath id="clip0"><path fill="#fff" d="M0 0h24v27H0z"/></clipPath></defs></svg>