<svg width="24" height="28" fill="none" xmlns="http://www.w3.org/2000/svg"><path d="M7.929 22.686c.145.948 1.09 1.691 2.153 1.691h2.788c1.062 0 2.008-.743 2.152-1.682l1.029-6.164 2.115-1.12c.292-.154.45-.441.401-.732l-.788-4.713c-.315-1.765-2.16-3.201-4.112-3.201h-.072a5.416 5.416 0 01-2.119.425c-.76 0-1.48-.154-2.119-.425h-.072c-1.953 0-3.797 1.436-4.113 3.208l-.787 4.706c-.049.29.108.578.4.733l2.116 1.119 1.028 6.155zM11.476 5.916c1.815 0 3.286-1.262 3.286-2.818C14.762 1.54 13.29.28 11.476.28S8.19 1.54 8.19 3.098c0 1.556 1.471 2.818 3.286 2.818z" fill="#122856"/><path d="M17.004 19.862l-.502 3.006c-.116.748-.542 1.443-1.2 1.958a3.956 3.956 0 01-2.432.825h-2.788a3.95 3.95 0 01-2.434-.827c-.657-.516-1.083-1.214-1.2-1.965l-.492-2.945C2.592 20.485 0 21.618 0 23.38c0 2.688 6.032 3.912 11.637 3.912s11.638-1.224 11.638-3.912c0-1.816-2.755-2.964-6.27-3.518z" fill="#122856"/><path d="M14.711 18.927H8.16v-1.442l3.346-3.444c.747-.793 1.12-1.447 1.12-1.96 0-.383-.121-.69-.364-.924-.233-.233-.536-.35-.91-.35-.746 0-1.292.383-1.638 1.148l-1.624-.952c.299-.663.733-1.171 1.302-1.526a3.554 3.554 0 011.932-.546c.887 0 1.648.28 2.282.84.635.55.952 1.297.952 2.24 0 1.017-.536 2.063-1.61 3.136l-1.918 1.918h3.682v1.862z" fill="#fff"/></svg>