<svg width="26" height="26" fill="none" xmlns="http://www.w3.org/2000/svg"><path d="M3.009 22.95H22.78V3.876H3.009V22.95zM3.439 3.047c.237 0 .43-.185.43-.415V1.39a.422.422 0 00-.43-.415.422.422 0 00-.43.415v1.243c0 .23.192.415.43.415zM3.439 23.78a.422.422 0 00-.43.415v1.243c0 .23.192.415.43.415.237 0 .43-.186.43-.415v-1.243a.422.422 0 00-.43-.415zM22.35.974a.422.422 0 00-.429.415v1.243c0 .23.193.415.43.415s.43-.185.43-.415V1.39a.422.422 0 00-.43-.415zM22.35 23.78a.422.422 0 00-.429.415v1.243c0 .23.193.415.43.415s.43-.186.43-.415v-1.243a.422.422 0 00-.43-.415zM24.07 4.705h1.29c.237 0 .43-.186.43-.415a.422.422 0 00-.43-.414h-1.29a.422.422 0 00-.43.414c0 .23.193.415.43.415zM1.72 3.876H.43A.422.422 0 000 4.29c0 .23.193.415.43.415h1.29c.237 0 .43-.186.43-.415a.422.422 0 00-.43-.414zM25.36 22.122h-1.29a.422.422 0 00-.43.414c0 .23.193.415.43.415h1.29c.237 0 .43-.185.43-.415a.422.422 0 00-.43-.414zM1.72 22.122H.43a.422.422 0 00-.43.414c0 .23.193.415.43.415h1.29c.237 0 .43-.185.43-.415a.422.422 0 00-.43-.414z" fill="#122856"/><path d="M6.228 9.766l2.576-.91h1.68v9.8H8.552v-7.755l-1.848.518-.476-1.653zm12.19 8.89h-6.552v-1.441l3.346-3.444c.747-.794 1.12-1.447 1.12-1.96 0-.383-.121-.691-.364-.925-.233-.233-.536-.35-.91-.35-.746 0-1.292.383-1.638 1.149l-1.624-.953c.299-.662.733-1.17 1.302-1.526a3.554 3.554 0 011.932-.546c.887 0 1.648.28 2.282.84.635.551.952 1.298.952 2.24 0 1.018-.536 2.063-1.61 3.136l-1.918 1.918h3.682v1.863z" fill="#fff"/></svg>