<svg width="86" height="86" fill="none" xmlns="http://www.w3.org/2000/svg"><g clip-path="url(#clip0)" fill="#fff"><path d="M74.799 11.816h-7.17V4.648A4.108 4.108 0 0063.535.552h-52.23a4.108 4.108 0 00-4.096 4.096V70.19a4.108 4.108 0 004.097 4.096h7.169v7.17a4.108 4.108 0 004.096 4.096h34.818c2.252 0 5.44-1.264 7.079-2.808l11.443-10.77c1.642-1.544 2.983-4.651 2.983-6.904l.002-49.157a4.109 4.109 0 00-4.096-4.097zm-56.326 4.097v55.301h-7.168a1.038 1.038 0 01-1.024-1.024V4.648c0-.555.469-1.024 1.024-1.024h52.23c.553 0 1.023.469 1.023 1.024v7.169H22.57a4.108 4.108 0 00-4.097 4.096zm55.331 53.823l-11.443 10.77c-.234.221-.54.437-.877.643v-9.423c0-.704.284-1.337.752-1.808a2.552 2.552 0 011.809-.752H74.29a4.298 4.298 0 01-.487.57zm2.016-4.667c0 .305-.055.657-.139 1.024H64.044a5.644 5.644 0 00-5.632 5.633v10.629a5.354 5.354 0 01-1.024.124H22.57a1.037 1.037 0 01-1.024-1.024V15.913c0-.555.468-1.024 1.024-1.024h52.228c.555 0 1.024.469 1.024 1.024l-.002 49.156z"/><path d="M63.534 26.154H33.836a1.535 1.535 0 100 3.072h29.698a1.536 1.536 0 100-3.072zM63.534 46.636H33.836a1.535 1.535 0 100 3.072h29.698a1.536 1.536 0 100-3.072zM50.221 56.877H33.836a1.535 1.535 0 100 3.072H50.22a1.535 1.535 0 100-3.072zM63.534 36.395H33.836a1.535 1.535 0 100 3.072h29.698a1.536 1.536 0 100-3.072z"/></g><defs><clipPath id="clip0"><path fill="#fff" transform="translate(.552 .552)" d="M0 0h85v85H0z"/></clipPath></defs></svg>