<svg width="109" height="109" fill="none" xmlns="http://www.w3.org/2000/svg"><g clip-path="url(#clip0)" fill="#fff" fill-opacity=".3"><path d="M52.49 48.3c-.272-2.551-.9-4.98-1.772-7.27a96.94 96.94 0 001.226-22.026v-.013C51.34 8.746 42.83.721 32.567.721 17.789.72 5.766 12.744 5.766 27.523c0 5.17.395 10.382 1.17 15.497a24.356 24.356 0 00-1.341 5.779C4.94 55.16 6.925 61.252 11.5 66.97c.39 2.596.67 5.237.828 7.855a1.574 1.574 0 003.142-.191 92.217 92.217 0 00-.302-3.68c.196.187.393.374.595.56a4.945 4.945 0 006.977-.28c1.846-1.999 1.72-5.128-.28-6.976-5.169-4.771-7.538-9.633-7.043-14.45.888-8.637 10.248-16.176 15.173-19.58 9.946 8.475 11.765 16.154 12.082 19.12.552 5.175-1.401 10.308-5.804 15.256a4.905 4.905 0 00-1.24 3.57 4.905 4.905 0 001.646 3.4 4.931 4.931 0 005.529.708 89.326 89.326 0 00-.037 2.495v16.655c0 7.479-6.084 13.563-13.563 13.563-7.479 0-13.563-6.084-13.563-13.563v-9.985a1.574 1.574 0 00-3.147 0v9.985c0 9.214 7.496 16.71 16.71 16.71s16.71-7.496 16.71-16.71V74.777c0-1.944.066-3.912.194-5.853 5.006-6.479 7.154-13.405 6.383-20.625zM32.567 3.867c8.595 0 15.724 6.718 16.234 15.297v.012a93.757 93.757 0 01-.52 16.75c-4.657-8.084-11.738-13.75-14.486-15.757a4.928 4.928 0 00-5.45-.245c-3.634 2.18-13.375 8.616-18.9 17.85-.35-3.407-.532-6.839-.532-10.253 0-13.043 10.61-23.654 23.654-23.654zm9.327 65.208a1.792 1.792 0 01-2.528.148 1.78 1.78 0 01-.597-1.234 1.777 1.777 0 01.45-1.294c5.018-5.638 7.232-11.587 6.582-17.682-.477-4.473-2.476-9.049-5.94-13.601-2.813-3.696-6-6.592-8.177-8.37a1.571 1.571 0 00-1.864-.093c-4.91 3.252-16.445 11.957-17.533 22.537-.603 5.855 2.102 11.603 8.039 17.083.725.67.771 1.805.103 2.529a1.794 1.794 0 01-2.53.103C11.086 62.915 8 56.159 8.725 49.12c.592-5.76 3.724-11.544 9.308-17.194 4.535-4.588 9.421-7.798 11.932-9.304a1.787 1.787 0 011.975.09c3.728 2.723 16.003 12.64 17.42 25.92.762 7.141-1.75 14.02-7.467 20.443zM100.382 50.709a24.355 24.355 0 00-1.34-5.78 103.811 103.811 0 001.17-15.497c0-14.778-12.023-26.801-26.802-26.801-10.262 0-18.774 8.025-19.376 18.27v.012a96.947 96.947 0 001.225 22.026c-.871 2.29-1.5 4.72-1.772 7.27-.77 7.22 1.377 14.146 6.384 20.625.127 1.941.193 3.909.193 5.853v16.655c0 9.214 7.496 16.71 16.71 16.71s16.71-7.496 16.71-16.71v-11.19c0-4.428.337-8.892.995-13.273 4.573-5.718 6.558-11.81 5.903-18.17zM57.175 21.087v-.012c.511-8.579 7.64-15.297 16.236-15.297 13.043 0 23.654 10.61 23.654 23.654 0 3.415-.18 6.847-.53 10.256-5.526-9.236-15.268-15.673-18.901-17.853a4.93 4.93 0 00-5.454.246c-2.747 2.006-9.828 7.673-14.485 15.758a93.785 93.785 0 01-.52-16.752zM88.08 71.11a1.793 1.793 0 01-2.529-.102 1.793 1.793 0 01.102-2.53c5.937-5.48 8.641-11.228 8.039-17.083-.518-5.036-3.396-10.184-8.555-15.302a1.573 1.573 0 10-2.216 2.234c4.628 4.592 7.199 9.097 7.64 13.39.496 4.816-1.874 9.678-7.043 14.45a4.944 4.944 0 00-.278 6.978 4.945 4.945 0 006.975.278c.204-.188.403-.376.6-.565-.314 3.09-.476 6.2-.476 9.294v11.189c0 7.479-6.085 13.563-13.564 13.563-7.478 0-13.563-6.085-13.563-13.563V76.686c0-.828-.014-1.661-.037-2.495a4.93 4.93 0 005.53-.707 4.905 4.905 0 001.646-3.401 4.904 4.904 0 00-1.24-3.57c-4.404-4.947-6.356-10.08-5.804-15.256.316-2.965 2.135-10.645 12.081-19.12.884.611 1.758 1.249 2.607 1.905a1.573 1.573 0 101.923-2.492 64.51 64.51 0 00-3.76-2.69 1.574 1.574 0 00-1.864.092c-2.177 1.778-5.363 4.674-8.176 8.37-3.464 4.552-5.463 9.128-5.94 13.6-.651 6.096 1.564 12.045 6.581 17.683.318.357.478.817.45 1.294a1.787 1.787 0 01-3.125 1.086c-5.716-6.424-8.229-13.302-7.466-20.443 1.417-13.28 13.691-23.197 17.418-25.919a1.789 1.789 0 011.979-.09c2.508 1.505 7.395 4.715 11.93 9.303 5.584 5.65 8.716 11.435 9.308 17.194.725 7.038-2.362 13.794-9.173 20.081z"/></g><defs><clipPath id="clip0"><path fill="#fff" transform="translate(.72 .72)" d="M0 0h107.422v107.422H0z"/></clipPath></defs></svg>