<svg width="22" height="25" fill="none" xmlns="http://www.w3.org/2000/svg"><path d="M13.491 18.284c2.017-3.415 4.566-8.216 4.566-10.684 0-4.164-3.316-7.55-7.393-7.55S3.271 3.437 3.271 7.6c0 2.468 2.55 7.269 4.566 10.684C5.444 18.47 0 19.132 0 21.331c0 2.164 5.527 3.15 10.669 3.15 5.137 0 10.669-.986 10.669-3.15-.005-2.199-5.454-2.862-7.847-3.047zM4.292 7.6c0-3.59 2.861-6.512 6.372-6.512 3.516 0 6.377 2.922 6.377 6.512 0 3.136-4.893 11.004-6.377 13.317C9.18 18.603 4.292 10.736 4.292 7.6zm6.372 15.84c-6.245 0-9.648-1.396-9.648-2.114 0-.554 2.246-1.745 7.421-2.05.972 1.601 1.71 2.733 1.807 2.867.132.18.518.394.845 0 .102-.124.835-1.266 1.806-2.866 5.176.304 7.422 1.49 7.422 2.049-.005.723-3.408 2.114-9.653 2.114z" fill="#fff"/><path d="M13.882 7.6c0-1.815-1.44-3.286-3.218-3.286-1.777 0-3.218 1.47-3.218 3.286 0 1.814 1.44 3.285 3.218 3.285 1.777 0 3.218-1.47 3.218-3.285zm-5.42 0c0-1.242.986-2.249 2.202-2.249s2.202 1.007 2.202 2.249c0 1.241-.986 2.248-2.202 2.248S8.462 8.841 8.462 7.6z" fill="#fff"/></svg>