<svg width="84" height="177" fill="none" xmlns="http://www.w3.org/2000/svg"><path d="M82.304 58.798c-1.47-5.026-5.68-8.315-11.737-9.286 1.77-3 3.069-7.577 1.756-12.667-2.216-8.59-10.546-8.702-15.075-8.74 2.037-3.631 4.11-9.367 2.976-15.076-.781-3.927-3.558-9.07-12.353-11.268C42.62.449 37.023.645 34.153.879c-1.403.115-2.57 1.185-2.775 2.544-.207 1.375.58 2.637 1.917 3.069 2.033.655 4.583 2.05 5.172 4.965.717 3.544-.646 8.543-17.696 15.81-5.772 2.46-9.37 5.935-10.695 10.326-1.561 5.17.453 10.258 2.495 13.698-1.811.493-3.883 1.333-5.76 2.605-3.703 2.509-5.747 6.02-5.912 10.157-.204 5.149 1.416 8.583 3.399 10.845a4.569 4.569 0 00-.587 2.08l-.114 3.341c-.209 6.112 3.826 11.27 9.483 12.807l3.257 13.695.001.003 10.65 44.782v.005l4.801 20.182c.695 2.922 3.224 4.886 6.291 4.886 3.069 0 5.732-1.964 6.625-4.887L68.78 93.126c5.763-1.537 10.149-6.695 10.357-12.807l.114-3.341a4.359 4.359 0 00-.414-2.013c3.084-2.98 5.84-8.063 3.467-16.167zM39.7 170.458c-.294.962-1.107 1.065-1.443 1.065-.337 0-1.145-.103-1.373-1.065l-3.572-15.017a197.517 197.517 0 009.814 3.825L39.7 170.457zm9.912-32.391c-.764-.283-1.528-.569-2.279-.858-1.33-.51-2.865.152-3.43 1.481-.563 1.329.057 2.821 1.389 3.332.919.353 1.853.702 2.791 1.045l-3.427 11.199a191.33 191.33 0 01-12.854-5.182l-3.48-14.628c1.851.946 3.723 1.862 5.599 2.738.352.164.725.242 1.094.242.986 0 1.948-.552 2.422-1.49.654-1.292.14-2.826-1.149-3.426a168.815 168.815 0 01-9.58-4.858l-3.71-15.593c9.307 5.961 19.362 10.972 30 14.941l-3.386 11.057zm4.915-16.059c-11.96-4.506-23.151-10.373-33.318-17.46l-2.605-10.951h6.67c9.815 7.138 20.76 13.032 32.58 17.541l-3.327 10.87zm4.86-15.879c-8.816-3.399-17.12-7.598-24.796-12.532h28.631l-3.836 12.532zm14.53-33.69h-44.07c-1.444 0-2.654 1.153-2.703 2.577-.048 1.424 1.083 2.579 2.527 2.579h44.33l-.093 2.725c-.14 4.11-3.37 7.515-7.41 8.045l-.004.001a9.87 9.87 0 01-.547.054l-.017.001a7.97 7.97 0 01-.53.018H16.78c-.172 0-.35-.006-.53-.018l-.017-.001a8.536 8.536 0 01-.542-.054l-.005-.001c-4.005-.53-7.002-3.935-6.862-8.045l.093-2.725h8.506c1.444 0 2.654-1.154 2.703-2.579.048-1.424-1.083-2.578-2.528-2.578H9.327c-2.27-1.838-3.347-4.645-3.2-8.356.233-5.879 7.047-7.915 9.413-8.165.11-.01.216-.033.324-.055 1.01 1.275 2.16 2.649 3.064 3.515.49.467 1.124.698 1.767.698.697 0 1.4-.273 1.933-.812 1.024-1.04 1.029-2.67.009-3.645-1.377-1.317-3.919-4.683-4.816-5.917-1.529-2.282-3.952-6.76-2.735-10.791.843-2.795 3.408-5.123 7.624-6.92 10.835-4.618 23.001-11.258 20.89-21.704a10.392 10.392 0 00-1.92-4.28c5.656.468 12.241 2.306 13.41 8.178.945 4.758-1.209 9.626-2.768 12.174-1.067 1.65-4.517 6.173-7.936 7.715-1.33.6-1.95 2.133-1.386 3.424.41.94 1.336 1.493 2.322 1.493.368 0 .745-.076 1.107-.24 2.79-1.257 5.296-3.591 7.139-5.666.072.014.142.033.215.04.945.12 2.03.128 3.178.138 5.279.044 9.107.428 10.29 5.011.99 3.844-.214 7.234-1.366 9.053-.568.722-3.702 4.616-7.696 7.761-1.147.904-1.364 2.528-.486 3.63a2.526 2.526 0 001.99.943c.584 0 1.177-.192 1.676-.585 2-1.575 3.784-3.287 5.21-4.782.225.05.455.083.692.092 3.804.14 8.627 1.293 10.004 5.996 1.584 5.419.487 9.37-3.356 12.057z" fill="#fff" fill-opacity=".3"/></svg>