<svg width="39" height="39" fill="none" xmlns="http://www.w3.org/2000/svg"><g clip-path="url(#clip0)" fill="#fff"><path d="M38.484 18.853a6.529 6.529 0 00-1.405-2.082 6.53 6.53 0 00-4.63-1.92h-.001a6.486 6.486 0 00-3.92 1.309L5.366 2.785a1.702 1.702 0 00-1.3-.17 1.703 1.703 0 00-1.04.798l-.858 1.484c-.229.396-.29.858-.171 1.3.118.443.402.812.798 1.041l28.35 16.37a.57.57 0 00.571-.989l-3.538-2.043 3.902-1.046 1.064.615a1.428 1.428 0 01.115 2.4.57.57 0 00.661.932l.002-.001a2.573 2.573 0 00-.207-4.32l-4.09-2.362c.847-.52 1.824-.8 2.824-.801 1.442 0 2.799.563 3.823 1.586a5.377 5.377 0 011.586 3.822v13.901H27.04V22.441a.572.572 0 00-1.143 0v13.433a.572.572 0 00.572.57h11.959a.573.573 0 00.571-.57V21.4c0-.884-.174-1.74-.516-2.548zM3.367 6.249a.568.568 0 01-.21-.78l.858-1.485a.568.568 0 01.78-.209l3.621 2.091-3.902 1.045-1.147-.662zm2.547 1.47l3.902-1.045 3.053 1.763-3.902 1.046-3.053-1.764zm4.453 2.572l3.902-1.046 3.053 1.764-3.902 1.045-3.053-1.763zm4.452 2.57l3.902-1.044 3.054 1.763-3.902 1.045-3.054-1.763zm4.453 2.572l3.902-1.045 3.054 1.763-3.902 1.045-3.054-1.763zm11.409 3.29l-3.902 1.045-3.054-1.764 3.902-1.045.655.378.009.005 2.39 1.38zM4.913 20.83H2.856A2.86 2.86 0 000 23.686v12.188c0 .315.256.571.571.571h6.627a.571.571 0 00.571-.571V23.686a2.86 2.86 0 00-2.856-2.856zm1.714 14.472H1.143V23.686c0-.945.768-1.714 1.713-1.714h2.057c.945 0 1.714.77 1.714 1.714v11.616z"/><path d="M4.913 23.19H2.856a.571.571 0 00-.57.57v2.057a.571.571 0 101.142 0v-1.485h.913v1.485a.571.571 0 101.143 0V23.76a.571.571 0 00-.571-.572zM32.45 24.726a2.478 2.478 0 00-2.476 2.476 2.478 2.478 0 002.475 2.475 2.478 2.478 0 002.476-2.475 2.478 2.478 0 00-2.476-2.476zm0 3.809a1.334 1.334 0 01-1.334-1.333c0-.735.598-1.333 1.333-1.333s1.333.598 1.333 1.333-.598 1.333-1.333 1.333z"/></g><defs><clipPath id="clip0"><path fill="#fff" d="M0 0h39v39H0z"/></clipPath></defs></svg>