<svg width="38" height="39" fill="none" xmlns="http://www.w3.org/2000/svg"><path d="M34.289 7.29a.547.547 0 00-.781-.101.581.581 0 00-.1.801 14.048 14.048 0 012.81 7.877l-7.475-2.056c.312-2.033.435-4.098.364-6.146a33.024 33.024 0 00-.317-3.557 13.292 13.292 0 012.914 2.013c.23.21.581.188.785-.048a.582.582 0 00-.047-.807 14.422 14.422 0 00-4.99-2.956l.537-1.546a.575.575 0 00-.337-.73.553.553 0 00-.711.345l-.56 1.611C20.08.385 13.476 3.326 10.286 9.172a.597.597 0 00-.075.326l.198 2.978c.037.569.423 1.05.96 1.197l5.496 1.512a1.287 1.287 0 001.415-.544l.714-1.092.087 1.312c.038.569.423 1.05.96 1.197l2.21.608-3.113 11.923-5.206-.015h-.002a.564.564 0 00-.557.57c0 .315.248.571.555.572l10.901.033h.006c.545 0 1.076-.23 1.458-.629l3.923-4.108a3.01 3.01 0 013.139-.778l1.193.408-7.44 7.688a1.659 1.659 0 01-1.184.506H4.376c-.056-.868.178-1.713.787-2.336a2.623 2.623 0 011.888-.8h.01l4.27.015h.001a.564.564 0 00.557-.57.564.564 0 00-.555-.572l-4.27-.017a3.709 3.709 0 00-2.687 1.135c-.905.926-1.114 2.196-1.114 3.488 0 .44.35.8.78.8H5.38l-1.152 2.597a1.75 1.75 0 00-.053 1.281H1.215a.564.564 0 00-.557.572c0 .315.25.571.557.571h34.254a.564.564 0 00.556-.571.564.564 0 00-.556-.572h-5.226a1.75 1.75 0 00-.053-1.281l-1.766-3.984 7.293-7.537c.404-.411.228-1.145-.306-1.322l-1.704-.583a4.11 4.11 0 00-4.286 1.062l-3.924 4.108a.92.92 0 01-.662.286h-.002l-4.543-.014 3.037-11.63 2.21.608a1.287 1.287 0 001.415-.544l.714-1.092.087 1.312c.038.569.424 1.05.96 1.197l5.497 1.512a1.287 1.287 0 001.414-.545l1.622-2.477a.598.598 0 00.094-.321A15.214 15.214 0 0034.29 7.29zM5.749 37.857a.54.54 0 01-.23-.051.578.578 0 01-.276-.757l1.361-3.07h1.224l-1.572 3.544a.558.558 0 01-.507.334zm10.97 0H7.331l1.72-3.878h8.68l-1.012 3.878zm1.153 0l1.012-3.878h6.484l1.72 3.878h-9.216zm11.305-.808a.579.579 0 01-.278.757.534.534 0 01-.228.051.56.56 0 01-.508-.334l-1.606-3.621c.364-.089.71-.25 1.013-.478l1.607 3.625zM17.355 14.004a.183.183 0 01-.202.077l-5.497-1.511a.19.19 0 01-.137-.171l-.144-2.181 7.168 1.971-1.188 1.815zm1.734-2.848l-7.468-2.053C14.317 4.722 19.166 2.3 24.098 2.75c-.866.97-1.66 2.006-2.37 3.096a25.964 25.964 0 00-2.639 5.31zm6.939 5.232a.183.183 0 01-.202.078l-5.497-1.512a.19.19 0 01-.137-.17l-.145-2.181 7.168 1.971-1.187 1.814zm1.633-2.874l-7.491-2.06a24.454 24.454 0 015.28-8.506c.723.144 1.438.353 2.129.62.228 1.366.368 2.756.416 4.137a31.904 31.904 0 01-.334 5.809zm7.039 5.26a.183.183 0 01-.202.077L29 17.34a.19.19 0 01-.137-.171l-.144-2.181 7.168 1.971-1.188 1.814z" fill="#fff"/></svg>