<svg width="39" height="39" fill="none" xmlns="http://www.w3.org/2000/svg"><g clip-path="url(#clip0)"><path d="M38.307 35.715l-4.787-17.55a2.604 2.604 0 00-2.508-1.915h-1.284c.523-1.685.8-3.436.823-5.2C30.525 5.031 25.707.13 19.689 0H19.5A10.972 10.972 0 008.503 9.848a17.287 17.287 0 00.767 6.402H7.99a2.604 2.604 0 00-2.508 1.916l-2.093 7.67v.004L.695 35.715A2.6 2.6 0 003.205 39h32.592a2.581 2.581 0 002.067-1.022c.072-.103.136-.21.193-.323a.67.67 0 00.055-.092c.293-.57.363-1.229.195-1.848zM31.012 17.55a1.3 1.3 0 011.254.958L33 21.203l-9.028 10.832-2.91-.975c2.126-2.503 6.19-7.763 8.24-13.51h1.71zM9.798 9.962A9.667 9.667 0 0119.5 1.3h.168a9.793 9.793 0 019.582 9.75c-.033 1.9-.37 3.782-.998 5.575a.645.645 0 00-.028.087c-1.938 5.754-6.135 11.141-8.233 13.602a.634.634 0 01-.488.226c-.005 0-.01-.004-.016-.004l-.328-.11a.654.654 0 01-.156-.12c-2.339-2.743-9.916-12.319-9.206-20.344zm-3.062 8.546a1.3 1.3 0 011.254-.958h1.706c1.708 4.792 4.82 9.249 7.064 12.074l-11.965-4 1.941-7.116zM3.206 37.7a1.292 1.292 0 01-1.035-.51 1.29 1.29 0 01-.22-1.132l1.565-5.74 6.81 2.276-4.26 5.106h-2.86zm9.129 0l2.89-3.468 10.38 3.468h-13.27zm23.466 0h-6.095L15.21 32.858h-.01a.678.678 0 00-.152-.019.73.73 0 00-.098-.01.619.619 0 00-.116.032.686.686 0 00-.122.035.721.721 0 00-.071.055.668.668 0 00-.13.102l-.008.006-3.862 4.641H7.76l4.174-5.005a.12.12 0 00.007-.012.63.63 0 00.11-.195v-.008a.65.65 0 00.022-.176c0-.026.01-.052.008-.076a.666.666 0 00-.036-.13.62.62 0 00-.032-.11.611.611 0 00-.051-.073.642.642 0 00-.104-.13l-.006-.007a.587.587 0 00-.1-.054.622.622 0 00-.11-.065l-7.783-2.6.596-2.182 14.152 4.731c.18.095.375.161.576.195l4.788 1.6.01.004a.636.636 0 00.207.034.643.643 0 00.301-.083.608.608 0 00.17-.13c.008-.009.02-.012.028-.022l8.732-10.473.71 2.607-6.86 8.232a.662.662 0 00-.058.11.587.587 0 00-.058.102v.007a.637.637 0 00-.02.172.704.704 0 00-.01.08c.008.045.02.089.036.13a.662.662 0 00.033.112.685.685 0 00.054.071.646.646 0 00.103.13l.005.007c.062.05.132.09.207.115h.005l3.42 1.137c.014.006.03.01.045.013l5.37 1.793c-.184.098-.39.149-.6.149zm-4.4-3.19a.526.526 0 00-.048-.014l-2.475-.826 5.668-6.802 2.505 9.19a1.3 1.3 0 01.042.355l-5.692-1.903z" fill="#fff"/></g><defs><clipPath id="clip0"><path fill="#fff" d="M0 0h39v39H0z"/></clipPath></defs></svg>