<svg width="36" height="36" fill="none" xmlns="http://www.w3.org/2000/svg"><g clip-path="url(#clip0)" fill="#fff"><path d="M36 19.495a7.07 7.07 0 00-2.156-5.057 5.169 5.169 0 00.264-1.638c0-2.958-2.495-5.365-5.561-5.365-.71 0-1.408.13-2.059.38-.797-3.142-3.74-5.48-7.24-5.48-2.199-.001-4.178.923-5.544 2.39-1.204-1.495-3.066-2.39-5.064-2.39-3.538-.001-6.416 2.775-6.416 6.188 0 .673.11 1.33.328 1.958C.925 12.041 0 14.171 0 16.395c0 1.164.244 2.29.725 3.348a.705.705 0 00.645.406c.094 0 .19-.019.282-.058a.67.67 0 00.361-.894 6.718 6.718 0 01-.607-2.802c0-1.994.888-3.897 2.436-5.222a.662.662 0 00.181-.771 4.655 4.655 0 01-.392-1.88c0-2.664 2.247-4.831 5.009-4.831 1.697 0 3.267.828 4.19 2.183a6.956 6.956 0 00-1.035 3.65v5.21L9.343 17.1v-5.742a.691.691 0 00-.703-.679.691.691 0 00-.704.679v3.291L6.58 13.341a.722.722 0 00-.995 0 .662.662 0 000 .959l2.351 2.268v6.772a7.398 7.398 0 01-1.812-.4.71.71 0 00-.903.4.672.672 0 00.414.872c.742.265 1.513.429 2.301.49v4.128a4.096 4.096 0 00-1.651-.343c-2.199 0-3.988 1.725-3.988 3.847 0 .566.126 1.113.374 1.625a.705.705 0 00.637.391h29.139a.691.691 0 00.703-.678.691.691 0 00-.703-.678H29.25v-6.34C33.031 26.31 36 23.23 36 19.494zM28.547 8.792c2.29 0 4.155 1.798 4.155 4.008 0 .54-.11 1.065-.326 1.559a.662.662 0 00.181.771c1.294 1.107 2.037 2.698 2.037 4.365 0 2.987-2.34 5.456-5.344 5.793V22.89l2.447-2.36a.662.662 0 000-.96.722.722 0 00-.994 0L29.25 20.97v-4.639a.691.691 0 00-.703-.678.691.691 0 00-.703.678v2.555L26.7 17.785v-8.26c0-.106-.002-.21-.007-.313a4.272 4.272 0 011.853-.42zm-1.893 10.866l1.19 1.148v4.483a6.175 6.175 0 01-3.28-1.405 7.07 7.07 0 002.09-4.226zM19.248 3.69c3.335 0 6.047 2.617 6.047 5.833v9.326c0 2.987-2.34 5.456-5.344 5.793v-2.398l2.448-2.361a.662.662 0 000-.96.722.722 0 00-.995 0l-1.453 1.402v-4.639a.691.691 0 00-.703-.678.691.691 0 00-.703.678v2.555l-.974-.94a.721.721 0 00-.995 0 .662.662 0 000 .96l1.97 1.899v4.482c-3.005-.337-5.345-2.806-5.345-5.793V9.524c0-3.216 2.713-5.833 6.047-5.833zm-1.86 24.796c-.424 0-.844.065-1.244.191-.798-1.294-2.24-2.1-3.84-2.1-1.117 0-2.162.41-2.961 1.09v-2.966a8.715 8.715 0 004.084-1.367 7.527 7.527 0 005.118 2.673v2.645a4.11 4.11 0 00-1.158-.166zm-5.593-11.834v2.197c0 1.21.312 2.35.86 3.35a7.289 7.289 0 01-3.312 1.14v-4.322l2.452-2.366zm-8.092 15.68c0-1.372 1.158-2.49 2.582-2.49a2.61 2.61 0 011.836.741.721.721 0 00.696.176.69.69 0 00.491-.506c.307-1.344 1.567-2.32 2.995-2.32 1.266 0 2.386.735 2.853 1.87.074.181.225.323.415.389.19.066.4.05.577-.044.377-.2.806-.306 1.24-.306 1.423 0 2.58 1.117 2.58 2.49 0 .226-.03.447-.091.66H3.795a2.393 2.393 0 01-.092-.66zm17.613.66c.039-.216.059-.436.059-.66 0-1.18-.554-2.236-1.424-2.942v-3.383a7.577 7.577 0 003.528-1.242 7.604 7.604 0 004.365 1.887v6.34h-6.528z"/><path d="M3.69 22.443a.672.672 0 00.207-.48.671.671 0 00-.206-.479.722.722 0 00-.995 0 .668.668 0 00-.206.48c0 .178.075.353.206.48a.72.72 0 00.995 0z"/></g><defs><clipPath id="clip0"><path fill="#fff" transform="translate(0 .977)" d="M0 0h36v34.73H0z"/></clipPath></defs></svg>