<svg width="19" height="14" fill="none" xmlns="http://www.w3.org/2000/svg"><path d="M17.608.481H.952A.965.965 0 000 1.453v10.69c0 .534.428.972.952.972h16.656a.965.965 0 00.952-.972V1.453a.965.965 0 00-.952-.972zm-.357.729L9.827 6.895a.914.914 0 01-.547.168.915.915 0 01-.548-.168L1.31 1.21H17.25zm-3.966 6.06l4.045 5.102.014.014H1.216c.004-.005.01-.009.013-.014L5.274 7.27a.37.37 0 00-.053-.512.352.352 0 00-.502.053L.714 11.864V1.665l7.59 5.813c.285.217.633.313.976.314.342-.001.69-.097.975-.314l7.59-5.813v10.199L13.84 6.81a.352.352 0 00-.502-.053.37.37 0 00-.053.512z" fill="#fff"/></svg>