<svg width="103" height="103" fill="none" xmlns="http://www.w3.org/2000/svg"><path d="M56.832 60.612a1.426 1.426 0 001.428-1.477c-.018-.82-.687-1.487-1.494-1.49a1.426 1.426 0 00-1.428 1.476c.018.82.687 1.487 1.494 1.49zM48.628 60.612a1.426 1.426 0 001.428-1.477c-.018-.82-.687-1.487-1.494-1.49a1.426 1.426 0 00-1.428 1.476c.018.82.687 1.487 1.494 1.49z" fill="#ECECEC" fill-opacity=".3"/><path d="M100.023 1.586c-.584-.582-1.509-.586-2.067-.01l-3.103 3.21c-4.072-3.063-9.782-2.767-13.338.91-1.889 1.953-2.895 4.557-2.833 7.332.05 2.273.814 4.438 2.175 6.23l-2.092 2.164-9.511-9.488c-.584-.582-1.51-.587-2.067-.01l-8.081 8.356a1.457 1.457 0 00-.405 1.047c.01.394.171.772.452 1.052l9.51 9.488-2.02 2.09-5.283-5.272c-2.914-2.907-7.55-2.928-10.335-.049-2.785 2.88-2.68 7.588.233 10.494l5.284 5.271-2.02 2.09-5.284-5.272c-1.411-1.408-3.263-2.188-5.215-2.197a7.01 7.01 0 00-5.119 2.148 7.173 7.173 0 00-1.579 2.53 7.034 7.034 0 00-2.462 1.648c-2.785 2.88-2.68 7.588.234 10.494l5.284 5.272-2.02 2.088-9.511-9.488a1.49 1.49 0 00-1.044-.44 1.411 1.411 0 00-1.023.43l-8.081 8.356a1.457 1.457 0 00-.405 1.048c.009.394.171.772.452 1.051l4.227 4.217c.583.583 1.509.587 2.066.01.558-.577.537-1.516-.046-2.099l-3.17-3.162 6.06-6.267 9.872 9.848c-.459-.05-.922-.077-1.388-.08-3.514-.016-6.786 1.358-9.214 3.869-.558.577-.537 1.516.047 2.099l1.056 1.054-2.055 2.125c-3.884-3.39-8.742-5.256-13.833-5.28a4.207 4.207 0 00-3.07 1.29 4.342 4.342 0 00-1.215 3.142c.055 2.454 2.066 4.461 4.483 4.472 2.75.014 5.38.954 7.55 2.67l-3.03 3.131a7.178 7.178 0 00-1.973 4.185l-.696 5.879a4.303 4.303 0 01-1.184 2.509 4.206 4.206 0 01-3.071 1.29 4.442 4.442 0 01-3.13-1.32c-1.748-1.743-1.81-4.567-.14-6.295.558-.577.537-1.517-.046-2.099-.584-.582-1.51-.587-2.067-.01-2.785 2.88-2.68 7.587.233 10.494a7.43 7.43 0 005.216 2.194 7.032 7.032 0 005.119-2.145 7.178 7.178 0 001.973-4.185l.697-5.88a4.303 4.303 0 011.183-2.508l3.03-3.132a12.656 12.656 0 012.762 7.618c.055 2.454 2.066 4.46 4.483 4.472a4.205 4.205 0 003.072-1.29 4.341 4.341 0 001.214-3.141 21.815 21.815 0 00-5.446-13.952l2.056-2.126 9.51 9.489c.292.29.67.437 1.044.439.374.002.745-.141 1.024-.43l8.08-8.356c.268-.277.414-.653.405-1.047a1.537 1.537 0 00-.451-1.052l-4.219-4.208-.008-.009-.027-.026-5.257-5.245 2.02-2.089 5.284 5.271a7.428 7.428 0 005.215 2.194 7.034 7.034 0 005.12-2.145 7.173 7.173 0 001.578-2.53 7.036 7.036 0 002.462-1.648c2.785-2.88 2.68-7.587-.234-10.494l-5.283-5.271 2.02-2.09 5.284 5.272a7.428 7.428 0 005.215 2.194 7.035 7.035 0 005.12-2.145c2.784-2.88 2.68-7.587-.234-10.494l-5.284-5.271 2.02-2.089 9.51 9.488c.28.28.655.438 1.043.44.388.001.756-.153 1.024-.43l8.081-8.356c.558-.577.537-1.517-.047-2.1l-9.51-9.487 2.091-2.164a10.291 10.291 0 006.173 2.097 9.814 9.814 0 007.167-3.008c3.555-3.677 3.745-9.481.656-13.561l3.104-3.21c.558-.577.537-1.516-.047-2.099zM30.841 91.82c.008.396-.135.768-.405 1.047-.27.28-.633.432-1.023.43-.807-.004-1.477-.672-1.495-1.49-.09-4.083-1.746-7.933-4.66-10.84-2.915-2.907-6.734-4.519-10.754-4.538-.806-.004-1.476-.673-1.495-1.491a1.447 1.447 0 01.405-1.047c.27-.28.633-.432 1.024-.43 4.799.023 9.358 1.947 12.838 5.419 3.48 3.472 5.457 8.067 5.565 12.94zm12.871-19.174l3.196 3.188-6.06 6.267-10.494-10.469a9.818 9.818 0 016.082-2.038c2.721.013 5.304 1.097 7.276 3.052zM59.9 55.959c1.748 1.744 1.811 4.569.14 6.296a4.214 4.214 0 01-1.939 1.142 1.42 1.42 0 00-1.012 1.047A4.315 4.315 0 0156 66.434c-1.67 1.727-4.452 1.714-6.2-.03l-12.682-12.65c-1.748-1.745-1.811-4.57-.14-6.297a4.216 4.216 0 011.94-1.142 1.42 1.42 0 001.01-1.047 4.318 4.318 0 011.09-1.99 4.206 4.206 0 013.072-1.289 4.442 4.442 0 013.13 1.32l12.68 12.65zm-4.441-16.744l-2.18-2.174c-1.747-1.744-1.81-4.569-.14-6.296a4.205 4.205 0 013.072-1.29 4.442 4.442 0 013.13 1.319l2.178 2.174c-1.203.648-2.425 1.66-3.448 2.716-1.022 1.058-1.996 2.317-2.612 3.551zm2.279 2.274c.11-.535.738-1.95 2.447-3.716 1.709-1.767 3.09-2.43 3.614-2.551l3.765 3.756c-.11.535-.74 1.949-2.447 3.715-1.71 1.768-3.09 2.43-3.614 2.552l-3.765-3.756zm12.104-.238l2.18 2.174a4.58 4.58 0 011.354 3.154 4.34 4.34 0 01-1.214 3.142 4.205 4.205 0 01-3.072 1.29 4.442 4.442 0 01-3.129-1.319l-2.18-2.176c1.203-.648 2.426-1.657 3.45-2.715 1.021-1.057 1.995-2.316 2.611-3.55zm2.88-9.44L62.23 21.344l6.061-6.267 3.17 3.163a10.69 10.69 0 013.16 7.36c.051 2.274-.617 4.432-1.898 6.211zm14.591 2.242l-6.06 6.268-6.4-6.386c1.81-2.35 2.76-5.254 2.692-8.322-.01-.474-.047-.944-.105-1.41l9.873 9.85zm6.884-15.706a7.01 7.01 0 01-5.119 2.15c-1.952-.01-3.804-.79-5.215-2.199a7.634 7.634 0 01-2.257-5.256c-.044-1.983.674-3.842 2.023-5.237a7.033 7.033 0 015.12-2.146c1.87.009 3.757.74 5.213 2.193 2.915 2.91 3.02 7.616.235 10.495z" fill="#ECECEC" fill-opacity=".3"/></svg>