<svg width="73" height="66" fill="none" xmlns="http://www.w3.org/2000/svg"><path d="M44.318 49.287c-.935.022-1.667-.968-1.304-1.763.414-1.034 2.03-1.024 2.504.015.41.8-.264 1.781-1.2 1.748zM24.856 57.18a1.449 1.449 0 01-.97-.379l-7.212-6.616c-.545-.499-.568-1.303-.053-1.796.515-.493 1.374-.488 1.919.011l7.212 6.616c.545.5.568 1.304.053 1.797a1.354 1.354 0 01-.949.366zM26.54 51.564a1.449 1.449 0 01-.97-.378l-2.835-2.6c-.544-.498-.567-1.303-.052-1.795.515-.493 1.374-.488 1.919.011l2.833 2.6c.545.499.568 1.303.053 1.796a1.354 1.354 0 01-.949.366z" fill="#ECECEC" fill-opacity=".3"/><path d="M70.575 12.225a1.278 1.278 0 00-.424-.9l-5.41-4.962c-.544-.499-1.403-.504-1.918-.011l-1.884 1.802-.576-.528c-.544-.5-1.403-.505-1.919-.012-.515.493-.492 1.297.053 1.797l.576.528-1.006.962-.576-.529c-.544-.5-1.403-.504-1.919-.011-.515.492-.491 1.297.053 1.796l.576.529-10.646 10.182c-5.403-3.111-10.738-3.081-14.112.146-.958.915-1.669 1.814-2.174 2.75-1.85 3.424-6.117 6.488-9.924 7.126-2.834.475-5.377 1.67-7.353 3.454-2.547 2.3-3.878 5.313-3.85 8.711.039 4.56 2.548 9.51 6.886 13.578 4.378 4.106 9.697 6.493 14.593 6.549h.084c3.608.022 6.815-1.21 9.28-3.568 2.016-1.93 3.33-4.426 3.801-7.22.064-.377.157-.766.28-1.156.207-.667-.208-1.384-.928-1.602-.72-.217-1.473.147-1.68.815-.154.491-.273.984-.354 1.465-.385 2.287-1.453 4.324-3.09 5.89-1.96 1.873-4.511 2.853-7.384 2.836h-.068c-4.176-.049-8.785-2.153-12.645-5.773-3.819-3.582-6.027-7.864-6.06-11.748-.022-2.702 1.034-5.095 3.054-6.92 1.604-1.449 3.679-2.42 6-2.81 4.612-.773 9.57-4.314 11.789-8.42.384-.71.944-1.413 1.714-2.149 3.18-3.041 7.686-1.427 10.21-.107L32.817 35.051c-2.059-.105-4.128.57-5.652 2.028-1.39 1.329-2.124 3.102-2.07 4.993.056 1.891.895 3.674 2.362 5.02a8.048 8.048 0 005.408 2.107c2.02.012 3.897-.713 5.287-2.042a6.595 6.595 0 002.045-5.335l10.796-10.326c1.448 2.352 3.216 6.588-.125 9.784a8.232 8.232 0 01-1.933 1.372c-.361.185-.726.393-1.085.617a1.202 1.202 0 00-.333 1.758 1.437 1.437 0 001.89.37c.298-.185.599-.356.895-.508.94-.483 1.794-1.09 2.538-1.801 1.98-1.895 2.88-4.344 2.603-7.084-.208-2.06-1.073-4.24-2.515-6.359l10.654-10.19.818.75c.272.25.622.376.97.378.347.002.69-.12.948-.366.516-.493.492-1.297-.052-1.797l-.818-.75 1.006-.961.817.75c.272.25.623.376.97.378.348.002.691-.12.949-.366.515-.493.492-1.298-.053-1.797l-.817-.75 1.884-1.803c.248-.237.38-.559.371-.896zM36.18 45.35c-.89.852-2.094 1.317-3.39 1.309a5.16 5.16 0 01-3.467-1.35c-1.942-1.782-2.026-4.663-.187-6.421.919-.88 2.148-1.314 3.39-1.307a5.18 5.18 0 013.466 1.348c1.942 1.782 2.027 4.662.188 6.42zm3.137-6.38a7.457 7.457 0 00-1.458-1.825c-.6-.551-1.27-.993-1.98-1.328L55.301 17.24l3.438 3.154L39.317 38.97zm21.288-20.36l-3.438-3.154 1.005-.961 3.439 3.153-1.006.962zm2.872-2.747l-3.438-3.153 1.005-.962 3.438 3.153-1.005.962zm-.567-5.9l.951-.91 3.439 3.154-.951.91-3.439-3.154zM20.685 10.612a1.284 1.284 0 00-.596-1.029 1.466 1.466 0 00-1.234-.175L8.278 12.717c-.548.171-.907.651-.892 1.193l.257 9.55a4.973 4.973 0 00-1.897-.383c-2.541-.01-4.557 1.9-4.494 4.26.064 2.358 2.183 4.285 4.725 4.296 2.541.01 4.557-1.901 4.494-4.26l-.338-12.546 7.877-2.464.21 7.788a4.973 4.973 0 00-1.898-.383c-2.541-.01-4.557 1.9-4.494 4.26.064 2.358 2.183 4.285 4.725 4.296 2.542.01 4.558-1.9 4.494-4.26l-.362-13.452zM5.909 29.106c-1.04-.004-1.908-.793-1.935-1.759-.026-.966.8-1.748 1.84-1.744 1.04.005 1.908.794 1.934 1.76.026.965-.799 1.747-1.84 1.743zm10.576-3.309c-1.04-.004-1.908-.793-1.934-1.759-.026-.965.8-1.747 1.84-1.743 1.04.004 1.908.793 1.934 1.758.026.966-.8 1.748-1.84 1.744zM65.476 44.743l-4.63-1.461a1.43 1.43 0 00-1.224.165c-.35.235-.55.616-.54 1.023l.257 9.54a4.965 4.965 0 00-1.895-.382c-2.538-.01-4.552 1.9-4.489 4.256.064 2.356 2.18 4.281 4.719 4.291 2.539.01 4.552-1.899 4.489-4.255l-.01-.337-.304-11.343 2.82.89c.717.227 1.48-.125 1.702-.784.223-.66-.177-1.377-.895-1.603zm-7.87 14.908c-1.04-.004-1.906-.792-1.931-1.757-.026-.965.798-1.746 1.837-1.742 1.04.004 1.906.792 1.932 1.757.026.965-.799 1.746-1.838 1.742zM38.44 14.27a1.46 1.46 0 01-.772-.226c-.976-.618-5.907-3.784-7.079-5.427-.51-.715-1.181-1.85-1.119-3.437.104-2.635 2.35-4.665 5.108-4.62 1.55.025 2.806.803 3.643 1.53.816-.69 2.034-1.424 3.513-1.415h.044c2.76.044 5.077 2.147 5.274 4.787.12 1.587-.512 2.701-.997 3.402-1.122 1.619-5.927 4.619-6.88 5.204a1.385 1.385 0 01-.734.201zM34.599 3.103c-1.282-.008-2.362.999-2.411 2.255-.027.665.16 1.214.647 1.895.566.793 3.359 2.782 5.542 4.207 2.127-1.352 4.841-3.249 5.383-4.03.463-.669.631-1.213.581-1.877-.094-1.266-1.224-2.314-2.517-2.334-1.083-.016-2.218 1.198-2.46 1.525a1.34 1.34 0 01-1.12.521 1.438 1.438 0 01-1.125-.586c-.314-.429-1.383-1.558-2.495-1.576h-.025z" fill="#ECECEC" fill-opacity=".3"/></svg>