<svg width="101" height="142" fill="none" xmlns="http://www.w3.org/2000/svg"><path d="M100.197 22.67c-.553-.43-13.716-10.475-29.013-6.704a22.696 22.696 0 00-5.337 2.057c-.213-.649-.47-1.324-.8-2.007C58.358 2.173 42.854.099 42.197.017a2.177 2.177 0 00-2.117.986 2.018 2.018 0 00.078 2.267c.026.035 1.653 2.303 3.735 6.283C29.56.596 11.94 7.15 11.195 7.433c-.813.31-1.35 1.064-1.361 1.907-.011.844.508 1.61 1.312 1.94.175.07 12.37 5.148 25.492 15.499-3.447-.445-7.155-.32-10.98.4C8.492 30.41.52 47.156.188 47.867a2.025 2.025 0 00.452 2.33 2.217 2.217 0 002.42.407c.187-.085 15.459-6.79 36.281-7.302.567 3.305 2.3 6.212 4.773 8.33-5.621 13.53-8.948 32.334-9.889 55.923-.552 13.839-.076 25.455.178 30.144h-2.32c-1.19 0-2.154.931-2.154 2.078 0 1.148.964 2.078 2.154 2.078h23.021c1.19 0 2.154-.93 2.154-2.078 0-1.147-.964-2.078-2.154-2.078h-2.717c-1.22-9.333-6.206-53.312 3.748-82.62 3.847-.56 7.355-2.575 9.696-5.593 15.278 9.1 23.28 21.572 23.376 21.725a2.173 2.173 0 001.841 1c.14 0 .282-.013.423-.04.89-.171 1.572-.862 1.707-1.727.03-.189.719-4.694.064-10.433-.884-7.746-3.83-14.054-8.517-18.241-4.996-4.464-10.094-6.055-14.525-6.297 15.776-7.267 28.777-9.104 28.943-9.127.851-.115 1.55-.706 1.779-1.504a2.036 2.036 0 00-.725-2.173zM18.042 9.882c5.849-1.17 15.54-1.906 23.662 3.252 3.452 2.192 6.77 5.487 8.877 8.812.62.98 1.946 1.289 2.96.69 1.016-.598 1.336-1.877.716-2.856a30.333 30.333 0 00-2.617-3.509 84.438 84.438 0 00-5.135-10.875c4.533 1.596 11.11 5.076 14.637 12.375.446.924.73 1.87.966 2.777a24.357 24.357 0 00-4.535 5.01c-2.167 3.174-3.67 6.93-4.401 10.9C40.7 22.456 25.786 13.79 18.042 9.883zm-.867 32.003c-4.039.909-7.435 1.9-10.04 2.756 3.44-4.79 9.848-11.596 19.347-13.383 7.045-1.326 13.54-.378 18.285 2.67.067.043.136.081.206.116a96.963 96.963 0 015.181 5.407c-13.304-1.076-25.082.657-32.98 2.434zm28.668 67.339c.379 13.054 1.609 23.874 2.201 28.474H38.72c-.537-9.893-2.282-55.471 9.08-83.75a15.12 15.12 0 003.821 1.11c-4.474 13.887-6.418 32.09-5.777 54.166zm8.11-58.143c-4.948 0-9.125-3.302-10.223-7.791 3.513.066 7.156.32 10.889.818a67.072 67.072 0 017.436 3.282c-1.98 2.305-4.957 3.691-8.102 3.691zM81.8 44.82c5.953 5.319 7.26 13.671 7.393 19.241-4.908-5.987-14.681-15.98-29.32-22.342a23.706 23.706 0 014.666-1.614c6.324-1.453 12.131.133 17.26 4.715zm-24.473-7.321c1.603-9.911 8.326-15.88 14.924-17.505 1.999-.493 3.97-.703 5.875-.703 6.063 0 11.465 2.118 15.014 3.957-7.36 1.635-21.254 5.585-35.813 14.25z" fill="#fff"/></svg>