<svg width="29" height="30" fill="none" xmlns="http://www.w3.org/2000/svg"><path d="M28.239 23l-5.87-3.951a1.703 1.703 0 00-2.294.376l-1.71 2.218a.726.726 0 01-.937.2l-.325-.181c-1.078-.594-2.42-1.332-5.122-4.061-2.703-2.73-3.436-4.084-4.024-5.17l-.178-.329a.743.743 0 01.193-.949l2.197-1.725a1.741 1.741 0 00.373-2.315L6.627 1.188A1.695 1.695 0 004.33.666L1.876 2.155a3.49 3.49 0 00-1.58 2.068c-.883 3.25-.218 8.86 7.97 17.124 6.512 6.573 11.36 8.341 14.693 8.341a8.49 8.49 0 002.272-.3 3.463 3.463 0 002.049-1.593l1.476-2.476a1.73 1.73 0 00-.517-2.32zm-.316 1.819l-1.472 2.477a2.501 2.501 0 01-1.474 1.153c-2.974.824-8.168.142-16.028-7.792C1.09 12.724.413 7.482 1.23 4.481a2.521 2.521 0 011.144-1.49l2.454-1.486a.735.735 0 01.997.226l2.127 3.222 1.784 2.702a.755.755 0 01-.16 1.005l-2.198 1.725a1.717 1.717 0 00-.448 2.191l.174.32c.618 1.143 1.386 2.566 4.19 5.395 2.803 2.829 4.211 3.604 5.344 4.227l.317.177c.734.415 1.66.222 2.17-.453l1.71-2.217a.74.74 0 01.996-.163l5.869 3.95a.75.75 0 01.224 1.007zM16.432 5.3c4.536.006 8.21 3.715 8.216 8.292 0 .27.216.488.483.488a.486.486 0 00.483-.488c-.005-5.116-4.113-9.261-9.182-9.267a.485.485 0 00-.483.488c0 .27.217.487.483.487z" fill="#fff"/><path d="M16.432 8.226c2.935.004 5.313 2.404 5.316 5.365 0 .27.217.488.483.488a.485.485 0 00.484-.488c-.004-3.5-2.815-6.336-6.283-6.34a.485.485 0 00-.483.487c0 .27.217.488.483.488z" fill="#fff"/><path d="M16.432 11.153a2.43 2.43 0 012.417 2.44c0 .269.216.487.483.487a.485.485 0 00.483-.488c-.002-1.885-1.515-3.412-3.383-3.414a.485.485 0 00-.483.488c0 .269.217.487.483.487z" fill="#fff"/></svg>