<svg width="142" height="142" fill="none" xmlns="http://www.w3.org/2000/svg"><g clip-path="url(#clip0)" fill="#fff" fill-opacity=".3"><path d="M124.694 30.611h-6.534a2.06 2.06 0 100 4.121h6.534a2.06 2.06 0 100-4.12zM88.031 40.551c-11.521 0-20.895 9.377-20.895 20.903 0 11.522 9.373 20.896 20.895 20.896 11.526 0 20.903-9.374 20.903-20.896 0-11.526-9.377-20.903-20.903-20.903zm0 37.678c-9.25 0-16.774-7.525-16.774-16.774 0-9.254 7.525-16.783 16.774-16.783 9.253 0 16.782 7.529 16.782 16.783 0 9.249-7.528 16.774-16.782 16.774z"/><path d="M133.581 19.61h-25.032l-2.423-6.697c-.391-1.079-1.58-4.36-4.939-4.36H69.134c-3.36 0-4.549 3.281-4.94 4.36l-2.423 6.697H41.39v-4.982a4.925 4.925 0 00-4.92-4.92h-9.18a4.921 4.921 0 00-4.911 4.92v5.07c-3.7.568-6.542 3.775-6.542 7.635v42.145L6.5 71.29c-3.924.765-6.495 4.578-5.73 8.498l9.25 47.732c.676 3.453 3.723 5.861 7.125 5.861.453 0 .912-.043 1.373-.131l20.126-3.905a2.06 2.06 0 00-.785-4.045l-20.122 3.903a3.138 3.138 0 01-3.671-2.471l-9.252-47.73a3.131 3.131 0 012.473-3.667l50.18-9.734a3.112 3.112 0 012.34.486 3.097 3.097 0 011.322 1.995l9.26 47.722a3.13 3.13 0 01-2.473 3.666l-20.133 3.905a2.06 2.06 0 00.784 4.046l20.135-3.905c3.925-.765 6.495-4.578 5.731-8.498l-2.504-12.905h23a2.06 2.06 0 100-4.12H71.13L68.96 86.8a31.725 31.725 0 0019.07 6.377c13.751 0 25.484-8.79 29.879-21.045h19.266v22.255a3.602 3.602 0 01-3.594 3.603H105.02a2.06 2.06 0 100 4.121h28.561c4.254 0 7.715-3.465 7.715-7.724V27.333c0-4.259-3.461-7.723-7.715-7.723zm-65.512-5.293c.395-1.09.753-1.644 1.064-1.644h32.054c.388 0 .793.894 1.064 1.643l1.916 5.293H66.153l1.916-5.292zm-11.76 47.138c0 .057.003.115.004.172L41.39 64.522v-9.624h15.602a31.736 31.736 0 00-.682 6.556zM26.5 14.628c0-.433.363-.798.791-.798h9.18a.8.8 0 01.799.798v4.982h-10.77v-4.982zm-6.541 12.705a3.603 3.603 0 013.594-3.603H37.27v41.591l-6.976 1.353V43.435c0-1.979-1.61-3.589-3.589-3.589h-6.746V27.333zm0 16.634h6.214v23.507l-6.214 1.205V43.967zm68.073 45.09a27.609 27.609 0 01-20.377-8.988l-2.477-12.77a7.19 7.19 0 00-3.06-4.627 7.328 7.328 0 00-1.68-.844c-.002-.125-.007-.249-.007-.373 0-15.224 12.382-27.61 27.6-27.61 15.225 0 27.61 12.386 27.61 27.61 0 15.22-12.385 27.601-27.609 27.601zm49.144-21.045h-18.098a31.77 31.77 0 00.001-13.114h18.097v13.114zm0-17.235H117.91c-4.394-12.26-16.128-21.053-29.879-21.053-13.748 0-25.479 8.794-29.872 21.053H41.39V23.73H133.582a3.602 3.602 0 013.594 3.603v23.444z"/><path d="M63.055 112.884c.483-.722.66-1.568.496-2.376l-7.003-35.19c-.372-1.84-2.293-2.964-4.376-2.564L13.95 80.167c-2.091.404-3.452 2.172-3.095 4.044l7.006 35.164c.156.814.636 1.53 1.354 2.017.629.426 1.401.649 2.201.649.274 0 .55-.026.826-.079l38.214-7.413c1.083-.209 2.03-.816 2.599-1.665zm-44.082-9.126l-3.927-19.606 37.607-7.294 2.281 11.466-4.821.936c-9.197 1.783-12.25 4.537-15.202 7.2-2.86 2.58-5.814 5.242-15.938 7.298zm2.791 14.099l-.96-4.952-1.022-5.107c11.245-2.289 14.766-5.461 17.89-8.277 2.765-2.495 5.154-4.65 13.226-6.215l4.84-.94 3.622 18.198-37.596 7.293z"/></g><defs><clipPath id="clip0"><path fill="#fff" transform="translate(.636 .636)" d="M0 0h140.66v140.66H0z"/></clipPath></defs></svg>