<svg width="118" height="121" fill="none" xmlns="http://www.w3.org/2000/svg"><path d="M71.004 103.556a10.664 10.664 0 012.495-7.696l.045-.053.002-.003 1.897-2.243.162-.192 9.398-25.281a.97.97 0 01.17-.29 5.465 5.465 0 017.802-.595 5.634 5.634 0 011.902 3.855c.026.36.017.719-.022 1.07a5.445 5.445 0 015.052 1.169 5.636 5.636 0 011.902 3.855c.026.361.017.72-.022 1.071a5.444 5.444 0 015.052 1.168 5.637 5.637 0 011.901 3.855c.026.36.018.717-.021 1.068a5.48 5.48 0 011.032-.18 5.418 5.418 0 014.019 1.351 5.655 5.655 0 011.899 3.856 5.7 5.7 0 01-1.327 4.1.966.966 0 01-.242.206l-22.815 13.577-2.073 2.451c-1.812 2.143-4.332 3.439-7.097 3.649-2.765.211-5.444-.689-7.542-2.534-2.1-1.845-3.367-4.414-3.57-7.234zm18.087 3.288L76.263 95.566l-.652.77 12.828 11.278.652-.77zm3.885-35.641a3.695 3.695 0 00-1.246-2.528 3.58 3.58 0 00-5.008.27l-7.504 20.187 12.886-15.241a3.726 3.726 0 00.872-2.688zm6.932 6.094a3.695 3.695 0 00-1.247-2.527 3.582 3.582 0 00-5.114.39l-15.79 18.673 2.153 1.893 3.336 2.933 15.79-18.674a3.726 3.726 0 00.872-2.688zm6.931 6.094a3.7 3.7 0 00-1.246-2.527 3.582 3.582 0 00-5.115.39l-15.79 18.673 5.49 4.826 15.649-18.507.14-.167a3.724 3.724 0 00.872-2.688zm6.156 8.664c1.201-1.544 1.004-3.8-.471-5.097a3.553 3.553 0 00-2.635-.885 3.587 3.587 0 00-2.48 1.275l-.799.944-12.868 15.22 19.253-11.457zm-25.836 17.001L74.4 97.839a8.711 8.711 0 00-1.496 5.572 8.633 8.633 0 002.913 5.906 8.304 8.304 0 006.158 2.069 8.345 8.345 0 005.184-2.33zM92.81 14.99l4.024-4.757a.94.94 0 011.344-.103.983.983 0 01.099 1.37l-4.024 4.759a.94.94 0 01-1.344.102.985.985 0 01-.098-1.37zM81.532 28.343l9.628-11.386a.94.94 0 011.344-.102.982.982 0 01.099 1.37l-9.628 11.386a.94.94 0 01-1.344.102.984.984 0 01-.099-1.37z" fill="#fff" fill-opacity=".1"/><path d="M14.482 113.406c-4.784-4.206-7.584-10.19-8.095-17.304-.697-9.693 2.984-20.078 10.097-28.49 12.455-14.73 31.696-18.8 43.394-9.373l18.243-21.576a.953.953 0 01.26-.212l-2.365-2.08a.983.983 0 01-.295-.998l1.184-4.313.007-.021.014-.04a.975.975 0 01.057-.132l.012-.025a.998.998 0 01.096-.14l.01-.015 22.79-26.953a.939.939 0 011.343-.102l8.901 7.824a.975.975 0 01.327.664.981.981 0 01-.229.706L87.443 37.78l-.013.013a.965.965 0 01-.12.116l-.014.01a.943.943 0 01-.127.082l-.034.019-.025.013-4.01 1.83a.937.937 0 01-1.01-.151l-2.359-2.074a.97.97 0 01-.167.294L61.32 59.506c4.35 4.162 6.9 9.896 7.385 16.65.696 9.693-2.984 20.077-10.098 28.49-6.132 7.253-14.075 12.172-22.363 13.849-8.374 1.694-16.103-.113-21.763-5.089zm93.686-103.111l-7.457-6.556-21.544 25.48 7.457 6.556 21.544-25.48zM84.964 36.883l-6.628-5.827-.617 2.245 5.158 4.534 2.087-.952zM35.877 116.59c7.872-1.594 15.433-6.285 21.29-13.211 6.785-8.025 10.298-17.894 9.638-27.078-.474-6.588-3.046-12.113-7.44-15.975-10.818-9.512-29.407-5.674-41.438 8.554-6.786 8.026-10.3 17.895-9.64 27.078.474 6.589 3.047 12.113 7.44 15.976 5.207 4.578 12.363 6.231 20.15 4.656z" fill="#fff" fill-opacity=".1"/><path d="M31.2 115.402c-5.252.017-10.199-1.617-14.105-5.052-4.256-3.742-6.746-9.063-7.2-15.389-.62-8.606 2.647-17.825 8.96-25.292 5.826-6.89 13.587-11.194 20.9-12.46a30.088 30.088 0 014.145-.355c5.27-.027 10.237 1.606 14.156 5.05l.001.001.002.002c3.832 3.37 6.256 8.246 7.028 13.756.07.537.132 1.08.171 1.631.619 8.607-2.648 17.826-8.961 25.293a39.702 39.702 0 01-5.48 5.346c-.019.017-.038.034-.06.049-4.674 3.732-9.904 6.113-15.045 7.013a37.176 37.176 0 01-4.512.407zm17.492-8.256l-5.672-4.987-8.418 9.955 1.062.932c4.421-.822 8.921-2.822 13.028-5.9zm14.72-26.903l-1.067-.939-8.417 9.955 5.68 4.993c2.344-4.506 3.66-9.315 3.804-14.01zm-5.895-16.211l-4.103 4.853 8.734 7.679.98-1.16c-.699-4.557-2.613-8.444-5.611-11.372zm-13.304-5.248l-.975 1.154 8.733 7.678 4.102-4.85c-3.362-2.651-7.481-3.944-11.86-3.982zM26.46 65.11l5.673 4.987 8.417-9.954-1.06-.933c-4.423.823-8.923 2.822-13.03 5.9zM11.74 92.014l1.067.938 8.418-9.954-5.68-4.994c-2.344 4.507-3.66 9.316-3.804 14.01zm5.895 16.211l4.104-4.853-8.735-7.679-.98 1.16c.7 4.556 2.613 8.443 5.611 11.372zm13.304 5.247l.976-1.153-8.734-7.679-4.102 4.85c3.362 2.652 7.482 3.944 11.86 3.982zM14.25 94.22l8.735 7.679 8.417-9.955-8.734-7.678-8.417 9.954zm18.397-3.748l8.418-9.955-8.734-7.679-8.418 9.955 8.734 7.679zm9.663-11.428l8.417-9.954-8.734-7.68-8.417 9.955 8.734 7.679zm18.593-1.008l-8.734-7.678-8.417 9.954 8.734 7.679 8.417-9.955zm-18.396 3.749l-8.417 9.955 8.734 7.678 8.417-9.954-8.734-7.68zm-9.663 11.427l-8.417 9.955 8.734 7.679 8.417-9.955-8.734-7.679zM20.298 70.937a38.73 38.73 0 00-3.795 5.342l5.967 5.246 8.417-9.955-5.963-5.243a38.088 38.088 0 00-4.626 4.61zm34.556 30.382a38.774 38.774 0 003.795-5.341l-5.967-5.246-8.417 9.955 5.963 5.242a38.11 38.11 0 004.626-4.61z" fill="#fff" fill-opacity=".1"/></svg>