<svg width="78" height="79" fill="none" xmlns="http://www.w3.org/2000/svg"><path d="M77.855 30.247c-.05-8.034-5.777-12.888-12.267-13.241-1.897-5.905-9.304-11.026-15.39-9.308-4.834-9.384-16.967-9.381-21.95 0-6.063-1.716-13.542 3.399-15.537 9.304-2.95.053-6.024 1.35-8.367 3.554C-6.79 32.433 5.933 50.624 23.52 69.973c-1.034 6.192 5.758 10.887 11.175 7.71l.002-.002c2.34-1.383 5.615-1.383 7.934.002a7.433 7.433 0 003.743 1.009c4.443.1 8.284-4.192 7.555-8.72 16.91-18.166 23.847-29.689 23.927-39.725zm-3.032 0c-.072 8.996-6.496 19.656-22.096 36.567a7.433 7.433 0 00-2.057-2.054c11.661-18.699 17.167-34.413 15.667-44.642 4.601.757 8.447 4.223 8.486 10.129zM56.464 11.32c14.857 7.288 3.787 31.925-8.477 52.024a23.022 23.022 0 00-1.845-.724c6.115-25.842 7.925-42.238 5.19-52.073 1.46-.318 3.321-.051 5.132.773zM39.256 3.665c10.936.407 11.129 15.053 9.657 27.717-.9 8.161-2.815 18.399-5.694 30.445a22.424 22.424 0 00-8.86 0c-2.685-12.046-4.436-22.284-5.205-30.445C27.9 18.68 28.282 4.112 39.256 3.665zm-17.31 7.644c1.818-.816 3.674-1.079 5.122-.762-2.892 9.832-1.345 26.235 4.355 52.073-.627.215-1.246.456-1.856.724-11.93-20.078-22.636-44.76-7.62-52.035zM6.407 22.776c1.55-1.457 3.564-2.414 5.505-2.661-1.666 10.228 3.587 25.944 14.95 44.646a7.613 7.613 0 00-2.09 2.053C9.136 49.518-2.743 32.557 6.407 22.776zM50.35 73.36c-1.183 2.144-4.115 2.94-6.184 1.68-1.627-.95-3.517-1.45-5.467-1.45h-.006c-1.95 0-3.848.5-5.488 1.448a4.49 4.49 0 01-6.16-1.678c-1.238-2.095-.425-5.035 1.718-6.21 3.081-1.777 6.541-2.716 10.006-2.716s6.91.939 9.963 2.716c2.123 1.175 2.89 4.116 1.618 6.21z" fill="#fff" fill-opacity=".3"/></svg>