<svg width="163" height="163" fill="none" xmlns="http://www.w3.org/2000/svg"><path d="M71.22 122.995h-6.498a2.19 2.19 0 01-1.548-3.736 2.19 2.19 0 011.548-.641h6.499a2.19 2.19 0 011.547 3.736 2.19 2.19 0 01-1.547.641z" fill="#ECECEC" fill-opacity=".8"/><path d="M125.686 122.995H86.538a2.19 2.19 0 01-1.547-3.736 2.19 2.19 0 011.547-.641h37.498c3.282-9.455 16.771-22.127 17.377-22.694 10.744-9.714 12.254-24.727 12.423-30.509a571.52 571.52 0 00-30.266 5.108A703.278 703.278 0 0023.867 97.9a469.343 469.343 0 00-14.443 5.412v15.306H27.74a2.19 2.19 0 011.547 3.736 2.19 2.19 0 01-1.547.641H7.236a2.19 2.19 0 01-2.188-2.188v-18.972a2.188 2.188 0 011.354-2.022c.06-.027 5.908-2.427 15.974-6.033A707.764 707.764 0 01122.73 66.227a572.776 572.776 0 0132.99-5.49 2.187 2.187 0 012.479 2.04c.055.925 1.16 22.823-13.823 36.368-4.09 3.825-15.099 15.3-16.55 22.119a2.187 2.187 0 01-2.14 1.731z" fill="#ECECEC" fill-opacity=".8"/><path d="M49.404 122.995h-6.346a2.19 2.19 0 01-1.547-3.736 2.19 2.19 0 011.547-.641h6.346a2.19 2.19 0 011.547 3.736 2.19 2.19 0 01-1.547.641zM23.121 98.016a2.188 2.188 0 01-2.188-2.188V63.94a2.188 2.188 0 011.637-2.119c24.173-6.287 74.079-9.508 76.192-9.646.43-.028.86.072 1.232.29l24.25 14.004a2.176 2.176 0 011.031 1.33 2.204 2.204 0 01-.217 1.667 2.189 2.189 0 01-3.002.793L98.382 56.588c-5.93.398-50.223 3.519-73.073 9.057v30.183a2.188 2.188 0 01-2.188 2.188z" fill="#ECECEC" fill-opacity=".8"/><path d="M23.121 81.538a2.188 2.188 0 01-.748-4.247C50.767 66.978 108.59 58.4 109.176 58.315a2.19 2.19 0 012.484 1.846 2.192 2.192 0 01-1.847 2.484c-.576.085-57.969 8.598-85.946 18.76-.239.088-.491.133-.746.133zM59.141 60.17a2.188 2.188 0 01-2.105-1.588l-4.42-15.515a2.188 2.188 0 012.105-2.788h15.668a2.188 2.188 0 012.087 1.532l4.333 13.852c.068.212.102.433.1.656a2.188 2.188 0 01-4.321.51l-3.807-12.173H57.62l3.625 12.727a2.189 2.189 0 01-2.105 2.787zM34.153 63.761a2.189 2.189 0 01-2.117-1.641l-4.945-19.103a2.188 2.188 0 012.116-2.738h15.668a2.188 2.188 0 012.094 1.554l5.055 16.65a2.188 2.188 0 11-4.188 1.272l-4.596-15.1H32.034l4.237 16.369a2.187 2.187 0 01-2.118 2.737zM113.52 88.685a2.19 2.19 0 001.548-3.735 2.19 2.19 0 00-3.736 1.547 2.185 2.185 0 002.188 2.188zM100.686 91.657a2.188 2.188 0 100-4.376 2.188 2.188 0 000 4.376zM87.852 94.629a2.188 2.188 0 100-4.377 2.188 2.188 0 000 4.377z" fill="#ECECEC" fill-opacity=".8"/></svg>