<svg width="95" height="93" fill="none" xmlns="http://www.w3.org/2000/svg"><path d="M41.714 69.829h-3.727c-.333 0-.653-.13-.89-.361a1.212 1.212 0 01-.012-1.742c.235-.231.553-.361.886-.361h3.726c.333 0 .653.13.89.36.237.232.37.545.373.872.002.326-.128.64-.362.87-.233.232-.552.362-.884.362z" fill="#ECECEC"/><path d="M72.942 69.829H50.496c-.333 0-.653-.13-.89-.361a1.212 1.212 0 01-.011-1.742c.233-.231.552-.36.885-.36h21.5c1.846-5.323 9.532-12.456 9.878-12.775 6.124-5.467 6.934-13.918 7.009-17.172a332.219 332.219 0 00-17.334 2.875 407.127 407.127 0 00-57.064 15.41 271.88 271.88 0 00-8.26 3.045l.057 8.616h10.501c.333 0 .653.13.89.36.237.232.37.545.373.872.002.327-.128.64-.362.87-.233.232-.552.362-.884.362H5.027c-.332 0-.652-.13-.89-.361a1.229 1.229 0 01-.372-.871l-.071-10.679a1.21 1.21 0 01.208-.685c.137-.202.332-.36.561-.453.034-.015 3.379-1.366 9.137-3.396a409.74 409.74 0 0157.435-15.508 333.121 333.121 0 0118.895-3.09 1.279 1.279 0 01.968.269 1.247 1.247 0 01.46.878c.036.521.75 12.847-7.79 20.471-2.33 2.153-8.6 8.612-9.406 12.45a1.218 1.218 0 01-.433.7c-.222.178-.5.275-.787.275z" fill="#ECECEC"/><path d="M29.205 69.829h-3.639c-.332 0-.652-.13-.89-.361a1.212 1.212 0 01-.012-1.742c.235-.231.553-.361.886-.361h3.639c.332 0 .652.13.89.36.236.232.37.545.372.872.002.326-.128.64-.361.87-.234.232-.552.362-.885.362zM14.042 55.769c-.332 0-.652-.13-.89-.361a1.23 1.23 0 01-.372-.871l-.119-17.948a1.21 1.21 0 01.257-.754c.168-.216.405-.37.674-.439 13.836-3.538 42.438-5.351 43.65-5.429.246-.016.492.04.707.163l13.956 7.883a1.26 1.26 0 01.595.748 1.212 1.212 0 01-.44 1.3 1.254 1.254 0 01-.93.242 1.28 1.28 0 01-.466-.157L57.04 32.45c-3.398.224-28.782 1.98-41.862 5.098l.112 16.989c.002.327-.128.64-.362.87-.233.232-.552.362-.885.362z" fill="#ECECEC"/><path d="M13.98 46.494c-.295.001-.582-.1-.81-.287a1.237 1.237 0 01-.436-.731 1.208 1.208 0 01.145-.832c.147-.25.38-.442.657-.54C29.778 38.297 62.9 33.47 63.235 33.421c.329-.048.664.035.933.23.268.195.447.486.498.81a1.21 1.21 0 01-.229.914 1.249 1.249 0 01-.821.483c-.33.048-33.205 4.84-49.208 10.56-.136.05-.281.075-.427.075zM34.554 34.467c-.273 0-.54-.088-.758-.25a1.243 1.243 0 01-.455-.645l-2.592-8.733a1.211 1.211 0 01.638-1.44c.173-.085.364-.129.558-.129h8.984c.267 0 .527.084.744.239.216.155.377.373.458.623l2.536 7.797c.04.12.06.244.06.37a1.21 1.21 0 01-.307.827 1.252 1.252 0 01-.792.41 1.278 1.278 0 01-.872-.218 1.242 1.242 0 01-.505-.732l-2.228-6.852h-6.399l2.126 7.163a1.21 1.21 0 01-.638 1.44 1.27 1.27 0 01-.558.13zM20.24 36.488c-.278 0-.549-.092-.77-.259a1.24 1.24 0 01-.45-.665L16.114 24.81a1.212 1.212 0 01.651-1.414c.172-.083.36-.127.552-.127H26.3c.27 0 .532.085.75.243.216.157.377.379.457.632l2.96 9.372a1.212 1.212 0 01-.396 1.31 1.252 1.252 0 01-.917.274 1.278 1.278 0 01-.85-.445 1.236 1.236 0 01-.234-.424l-2.69-8.498h-6.426l2.49 9.213a1.214 1.214 0 01-.45 1.294 1.257 1.257 0 01-.754.247zM65.838 50.517c.333 0 .651-.13.885-.361.234-.231.364-.544.362-.871a1.229 1.229 0 00-.373-.871 1.275 1.275 0 00-1.775 0 1.213 1.213 0 00.012 1.742c.237.23.557.36.89.36zM58.49 52.19c.333 0 .652-.13.886-.361a1.212 1.212 0 00-.012-1.742 1.275 1.275 0 00-1.774 0 1.212 1.212 0 00.011 1.742c.237.23.557.36.89.36zM51.144 53.862c.332 0 .65-.13.884-.36a1.212 1.212 0 00-.011-1.743 1.275 1.275 0 00-1.775 0 1.212 1.212 0 00.012 1.742c.237.231.557.361.89.361z" fill="#ECECEC"/></svg>