<svg width="119" height="119" fill="none" xmlns="http://www.w3.org/2000/svg"><g clip-path="url(#clip0)" fill="#fff"><path d="M118.437 44.4a9.432 9.432 0 00-9.003-6.57h-.007l-27.224.02H82.2a5.582 5.582 0 01-5.298-4.032L68.585 6.88a9.457 9.457 0 00-18.168 0l-8.318 26.937A5.582 5.582 0 0136.8 37.85h-.003l-27.224-.02h-.007A9.433 9.433 0 00.563 44.4a9.774 9.774 0 003.324 11.069l22.24 16.935a5.955 5.955 0 012.017 6.498l-8.461 27.267a9.738 9.738 0 003.729 11.063 9.215 9.215 0 0011.043-.245l21.762-16.623a5.348 5.348 0 016.566 0l21.762 16.622a9.21 9.21 0 0011.042.247 9.738 9.738 0 003.73-11.063l-8.461-27.269a5.955 5.955 0 012.016-6.497l22.24-16.935a9.773 9.773 0 003.325-11.07zm-5.724 7.916l-22.24 16.935a9.929 9.929 0 00-3.403 10.825l8.462 27.268a5.847 5.847 0 01-2.212 6.639 5.258 5.258 0 01-6.367-.147L65.19 97.213a9.28 9.28 0 00-11.382 0l-21.761 16.624a5.26 5.26 0 01-6.368.146 5.846 5.846 0 01-2.212-6.639l8.461-27.268a9.929 9.929 0 00-3.402-10.825L6.287 52.316a5.888 5.888 0 01-1.968-6.648 5.474 5.474 0 015.247-3.875h.003l27.223.02h.008a9.52 9.52 0 009.084-6.827L54.202 8.05a5.498 5.498 0 0110.598 0l8.316 26.938a9.52 9.52 0 009.082 6.826h.01l27.223-.02h.004a5.473 5.473 0 015.246 3.876 5.889 5.889 0 01-1.968 6.647z"/><path d="M59.528 10.549a1.982 1.982 0 00-1.982 1.982v2.047c0 1.094.887 1.981 1.981 1.982h.001a1.981 1.981 0 001.982-1.981v-2.048a1.982 1.982 0 00-1.982-1.982zM59.528 20.789a1.981 1.981 0 00-1.982 1.981v2.048a1.981 1.981 0 003.963 0V22.77a1.981 1.981 0 00-1.981-1.981zM59.528 31.028a1.982 1.982 0 00-1.982 1.982v2.047a1.981 1.981 0 103.963.001V33.01a1.982 1.982 0 00-1.981-1.982zM59.528 41.268a1.982 1.982 0 00-1.982 1.981v2.048a1.981 1.981 0 103.963 0v-2.048a1.981 1.981 0 00-1.981-1.981zM59.528 51.507a1.982 1.982 0 00-1.982 1.982v2.047a1.981 1.981 0 103.963.001v-2.048a1.981 1.981 0 00-1.981-1.982zM14.622 46.425l-1.796-.865a1.981 1.981 0 10-1.718 3.57l1.796.865a1.981 1.981 0 001.718-3.57zM23.602 50.752l-1.796-.865a1.981 1.981 0 00-1.719 3.57l1.796.865a1.982 1.982 0 001.719-3.57zM32.585 55.08l-1.795-.866a1.982 1.982 0 00-1.723 3.57l1.796.867a1.982 1.982 0 001.722-3.571zM41.565 59.408l-1.796-.866a1.982 1.982 0 00-1.722 3.57l1.796.866a1.982 1.982 0 001.722-3.57zM50.543 63.735l-1.796-.865a1.981 1.981 0 00-1.719 3.57l1.796.865a1.982 1.982 0 001.719-3.57zM108.874 46.486a1.98 1.98 0 00-2.644-.926l-1.796.865a1.98 1.98 0 101.718 3.57l1.796-.865a1.981 1.981 0 00.926-2.644zM99.895 50.813a1.981 1.981 0 00-2.645-.926l-1.796.865a1.981 1.981 0 101.719 3.57l1.796-.864a1.982 1.982 0 00.926-2.645zM90.908 55.136a1.982 1.982 0 00-2.642-.922l-1.795.866a1.982 1.982 0 001.722 3.57l1.796-.865a1.982 1.982 0 00.919-2.649zM81.928 59.464a1.982 1.982 0 00-2.64-.922l-1.797.866a1.982 1.982 0 001.723 3.57l1.796-.866a1.982 1.982 0 00.918-2.648zM72.954 63.796a1.981 1.981 0 00-2.645-.926l-1.796.865a1.98 1.98 0 101.72 3.57l1.795-.865a1.982 1.982 0 00.926-2.644zM54.783 71.912a1.982 1.982 0 00-2.752.53l-1.136 1.678a1.983 1.983 0 003.282 2.222l1.136-1.678a1.982 1.982 0 00-.53-2.752zM49.092 80.302a1.982 1.982 0 00-2.745.528l-1.136 1.677a1.982 1.982 0 001.639 3.094c.658 0 1.274-.325 1.643-.87l1.136-1.677c.611-.908.37-2.14-.537-2.752zM43.431 88.688a1.981 1.981 0 00-2.754.514l-.01.014-1.138 1.678a1.981 1.981 0 003.269 2.24l.01-.015 1.138-1.677a1.981 1.981 0 00-.515-2.754zM37.733 97.076a1.982 1.982 0 00-2.752.53l-1.136 1.678a1.982 1.982 0 103.282 2.221l1.136-1.677a1.981 1.981 0 00-.53-2.752zM32.042 105.466a1.982 1.982 0 00-2.745.528l-1.136 1.676a1.983 1.983 0 003.282 2.224l1.136-1.677c.612-.908.371-2.14-.537-2.751zM68.161 74.12l-1.136-1.677a1.982 1.982 0 00-3.282 2.221l1.136 1.678a1.982 1.982 0 003.282-2.222zM73.845 82.507l-1.136-1.677a1.982 1.982 0 00-3.283 2.223l1.137 1.677a1.982 1.982 0 003.282-2.223zM79.537 90.909a.6.6 0 00-.01-.014l-1.138-1.678a1.981 1.981 0 10-3.278 2.225l1.138 1.678a1.981 1.981 0 103.288-2.211zM85.21 99.283l-1.135-1.678a1.982 1.982 0 10-3.282 2.222l1.136 1.678a1.982 1.982 0 003.282-2.222zM90.895 107.67l-1.136-1.677a1.982 1.982 0 00-3.282 2.223l1.135 1.677a1.982 1.982 0 003.283-2.223z"/></g><defs><clipPath id="clip0"><path fill="#fff" d="M0 0h119v119H0z"/></clipPath></defs></svg>