<svg width="158" height="154" fill="none" xmlns="http://www.w3.org/2000/svg"><path d="M154.506 76.048c-.787-.96-2.114-1.297-3.309-.842-1.285.488-2.633.74-4.006.745-3.483.014-6.655-1.552-8.705-4.295a3.091 3.091 0 00-.174-.21c-4.235-5.123-10.536-8.043-17.305-8.016-2.41.01-4.768.382-7.041 1.109a35.256 35.256 0 00-2.671-6.003 17.765 17.765 0 014.793-8.103 17.956 17.956 0 017.287-4.311 17.977 17.977 0 007.526-4.384c4.429-4.304 6.334-10.62 4.971-16.482a2.846 2.846 0 00-2.571-2.199c-1.258-.098-2.467.609-3.02 1.763a11.666 11.666 0 01-2.405 3.335c-2.539 2.467-5.972 3.64-9.418 3.215a2.876 2.876 0 00-.277-.02c-6.733-.505-13.417 1.95-18.354 6.747a24.088 24.088 0 00-4.364 5.735 35.514 35.514 0 00-6.227-2.236c-1.557-2.669-2.327-5.727-2.228-8.893.09-2.825.877-5.62 2.278-8.085a17.564 17.564 0 002.4-8.302c.19-6.062-2.895-11.715-8.05-14.752-1.072-.631-2.452-.505-3.442.315-.99.82-1.375 2.157-.961 3.334.444 1.265.648 2.602.605 3.973-.11 3.475-1.791 6.698-4.615 8.841a3.21 3.21 0 00-.218.181c-5.287 4.409-8.438 10.801-8.65 17.558a22.535 22.535 0 00.862 6.99 38.396 38.396 0 00-6.115 2.877 16.294 16.294 0 01-7.958-4.498 16.35 16.35 0 01-4.067-7.121 16.373 16.373 0 00-4.13-7.358c-4.161-4.269-10.428-5.948-16.357-4.38a3.119 3.119 0 00-2.296 2.644 2.858 2.858 0 001.66 2.953 10.589 10.589 0 013.261 2.283c2.385 2.447 3.44 5.833 2.893 9.288a2.916 2.916 0 00-.031.277c-.745 6.739 1.482 13.324 6.119 18.083a21.818 21.818 0 005.598 4.154 37.87 37.87 0 00-2.463 6.294 17.512 17.512 0 01-8.998 2.539c-2.831.011-5.607-.676-8.03-1.988-2.48-1.387-5.329-2.114-8.241-2.102-6.074.024-11.853 3.303-15.081 8.557-.672 1.093-.594 2.465.194 3.424.788.96 2.115 1.296 3.31.843a11.361 11.361 0 014.006-.745c3.482-.014 6.655 1.551 8.705 4.294.055.073.113.143.174.21 4.235 5.124 10.535 8.043 17.305 8.016a23.36 23.36 0 007.04-1.108 35.267 35.267 0 002.671 6.003 17.756 17.756 0 01-4.793 8.102 17.953 17.953 0 01-7.287 4.312c-2.799.804-5.4 2.32-7.525 4.383-4.43 4.305-6.335 10.62-4.972 16.483a2.847 2.847 0 002.815 2.207 3.115 3.115 0 002.777-1.771 11.68 11.68 0 012.404-3.336c2.54-2.467 5.973-3.638 9.419-3.215.091.011.184.018.276.021.612.045 1.221.067 1.83.065 6.101-.025 12.035-2.451 16.524-6.812a24.088 24.088 0 004.365-5.736c1.98.927 4.06 1.68 6.226 2.236 1.558 2.669 2.328 5.727 2.228 8.894a17.536 17.536 0 01-2.277 8.085 17.56 17.56 0 00-2.4 8.301c-.19 6.063 2.894 11.716 8.05 14.752.458.271.973.402 1.489.4a3.083 3.083 0 001.952-.715c.99-.82 1.376-2.157.962-3.334a10.906 10.906 0 01-.605-3.973c.109-3.475 1.79-6.698 4.614-8.841.076-.057.148-.118.218-.181 5.288-4.408 8.44-10.801 8.651-17.558a22.533 22.533 0 00-.862-6.989 38.394 38.394 0 006.115-2.878 16.295 16.295 0 017.958 4.498 16.344 16.344 0 014.066 7.121 16.382 16.382 0 004.131 7.358c3.147 3.229 7.497 4.976 11.995 4.957a17.298 17.298 0 004.361-.577 3.119 3.119 0 002.297-2.644c.142-1.259-.523-2.442-1.661-2.953a10.588 10.588 0 01-3.261-2.283c-2.385-2.447-3.439-5.833-2.892-9.288.015-.092.025-.184.031-.276.744-6.74-1.482-13.325-6.119-18.084a21.843 21.843 0 00-5.598-4.154 37.846 37.846 0 002.462-6.294 17.508 17.508 0 015.821-2.234c1.628-.309 2.744-1.868 2.492-3.483-.252-1.614-1.776-2.674-3.405-2.364a23.63 23.63 0 00-3.571.974 36.6 36.6 0 00-.309-9.092 17.332 17.332 0 015.442-.896c5.048-.02 9.745 2.17 12.886 6.01l.039.045a16.28 16.28 0 0010.197 6.206c-.72.89-.916 2.132-.4 3.195a2.858 2.858 0 002.603 1.604c.46-.001.929-.11 1.373-.336a18.046 18.046 0 007.183-6.635c.671-1.092.594-2.465-.195-3.424zm-75.37 32.239c-8.262-.3-15.934-3.67-21.611-9.496-9.71-9.965-9.2-26.244 1.139-36.288 8.03-7.803 20.7-7.854 28.242-.114 5.809 5.961 5.503 15.7-.681 21.71-4.708 4.574-12.136 4.604-16.557.066-1.605-1.647-2.448-3.841-2.375-6.179.074-2.338 1.055-4.54 2.763-6.2 1.201-1.166 1.26-3.051.132-4.209-1.128-1.157-3.016-1.15-4.217.017-5.925 5.757-6.218 15.087-.653 20.797 6.674 6.85 17.886 6.805 24.992-.1 8.583-8.34 9.007-21.855.946-30.128-9.113-9.351-23.984-9.94-34.41-1.82 5.855-6.075 14.034-9.897 22.966-9.933 17.102-.068 30.578 13.762 30.043 30.831-.523 16.645-14.182 30.315-30.719 31.046zm24.777-65.998c3.681-3.577 8.672-5.397 13.696-4.997l.06.004a17.434 17.434 0 0011.287-2.584 11.682 11.682 0 01-2.14 2.833 11.715 11.715 0 01-4.916 2.864l-.04.012c-3.662 1.1-7.07 3.112-9.857 5.82a24.208 24.208 0 00-4.772 6.503 35.32 35.32 0 00-6.673-5.99 17.834 17.834 0 013.355-4.465zm-31.594-6.547c.158-5.038 2.52-9.804 6.482-13.076l.047-.04c3.23-2.492 5.467-5.915 6.43-9.729.326 1.098.48 2.259.443 3.443a11.448 11.448 0 01-1.568 5.424l-.02.036a23.656 23.656 0 00-3.09 10.927 22.6 22.6 0 001.113 7.786A37.25 37.25 0 0080 40.458c-2.376.009-4.707.246-6.974.684a16.699 16.699 0 01-.706-5.4zM44.545 53.578c-3.458-3.549-5.108-8.468-4.528-13.496l.006-.06c.597-3.98-.193-7.894-2.192-11.175a10.565 10.565 0 012.766 2.035 10.673 10.673 0 012.698 4.807l.01.039a22.052 22.052 0 005.49 9.633 21.936 21.936 0 006.354 4.534 39.22 39.22 0 00-6.244 6.874 16.178 16.178 0 01-4.36-3.191zm-7.684 31.77c-5.047.02-9.744-2.17-12.886-6.01a1.2 1.2 0 00-.038-.045 16.265 16.265 0 00-9.531-6.075 11.318 11.318 0 013.469-.564c1.907-.007 3.77.468 5.384 1.374l.035.019c3.279 1.78 7.03 2.712 10.851 2.697a23.51 23.51 0 007.85-1.386 36.592 36.592 0 00.308 9.093 17.327 17.327 0 01-5.442.896zM53.77 112.44c-3.682 3.578-8.674 5.398-13.696 4.998l-.06-.005a17.427 17.427 0 00-11.287 2.585 11.663 11.663 0 012.14-2.834 11.71 11.71 0 014.916-2.863l.04-.012c3.661-1.1 7.07-3.112 9.856-5.82a24.186 24.186 0 004.772-6.503 35.375 35.375 0 006.673 5.99 17.833 17.833 0 01-3.354 4.464zm31.594 6.547c-.159 5.039-2.521 9.805-6.483 13.077l-.047.039c-3.23 2.493-5.467 5.916-6.43 9.73a10.91 10.91 0 01-.443-3.444c.06-1.903.602-3.779 1.568-5.423l.02-.036a23.656 23.656 0 003.09-10.927 22.603 22.603 0 00-1.113-7.787c.713.039 1.432.059 2.157.056a37.393 37.393 0 006.974-.685c.525 1.729.765 3.537.707 5.4zm27.773-17.835c3.458 3.548 5.108 8.467 4.528 13.495l-.006.061c-.597 3.98.193 7.894 2.193 11.175a10.55 10.55 0 01-2.766-2.036 10.67 10.67 0 01-2.709-4.845 22.055 22.055 0 00-5.489-9.634 21.923 21.923 0 00-6.355-4.534 39.22 39.22 0 006.244-6.873 16.18 16.18 0 014.36 3.191z" fill="#fff"/><path d="M133.614 80.483a3.123 3.123 0 00-2.136.88 3.104 3.104 0 00-.939 2.108c-.025.782.27 1.549.807 2.1.54.551 1.297.867 2.081.864a3.11 3.11 0 003.075-2.988 2.876 2.876 0 00-.808-2.1 2.895 2.895 0 00-2.08-.864z" fill="#fff"/></svg>