<svg width="61" height="61" fill="none" xmlns="http://www.w3.org/2000/svg"><path d="M20.931 28.4c4.113 0 7.458-2.719 7.458-6.06a.933.933 0 00-1.864 0c0 2.075-2.02 3.802-4.661 4.136v-2.959c.098-.05.193-.106.282-.17l1.583-1.129a2.258 2.258 0 00.931-1.84c0-1.231-.963-2.232-2.147-2.232H19.35c-1.183 0-2.146 1-2.146 2.232a2.256 2.256 0 00.931 1.84l1.582 1.13c.09.063.184.12.283.17v2.958c-2.642-.334-4.66-2.061-4.66-4.136a.933.933 0 00-1.865 0c0 3.341 3.345 6.06 7.457 6.06zm-1.714-7.7a.397.397 0 01-.15-.323c0-.199.13-.367.282-.367h3.165c.153 0 .282.168.282.367a.398.398 0 01-.15.323l-1.582 1.13a.217.217 0 01-.265 0l-1.582-1.13zM26.525 18.145a.932.932 0 100-1.864.932.932 0 000 1.864zM15.338 18.145a.932.932 0 100-1.864.932.932 0 000 1.864zM45.18 36.79a3.728 3.728 0 100-7.457 3.728 3.728 0 000 7.456zm0-5.594a1.865 1.865 0 11-.001 3.73 1.865 1.865 0 010-3.73z" fill="#fff" fill-opacity=".3"/><path d="M58.23 38.654h-5.593V26.535a.927.927 0 00-.17-.534l-6.525-9.322a.931.931 0 00-1.527 0L37.89 26a.926.926 0 00-.168.534v5.834c-1.277-1.716-2.98-3.14-5.083-4.239 2.076-2.44 3.208-5.611 3.208-9.052a14.73 14.73 0 00-.684-4.483 6.526 6.526 0 10-8.87-8.714 17.745 17.745 0 00-5.362-.787 17.74 17.74 0 00-5.36.787A6.525 6.525 0 106.7 14.595a14.726 14.726 0 00-.684 4.482c0 3.442 1.132 6.613 3.208 9.053-4.538 2.37-7.214 6.258-7.763 11.32a1.142 1.142 0 00-.003.034l-.09 1.28a.896.896 0 000 .126 5.605 5.605 0 003.722 4.902 9.166 9.166 0 00-.928 4.048c0 4.626 3.346 8.39 7.458 8.39 2.214 0 4.204-1.092 5.572-2.821a7.828 7.828 0 007.5 0c1.367 1.729 3.358 2.821 5.572 2.821 2.922 0 5.455-1.901 6.678-4.661H58.23a.932.932 0 00.932-.932V39.586a.932.932 0 00-.932-.932zM45.18 18.839l4.734 6.764h-9.47l4.735-6.764zm-5.594 8.628h11.186v11.187H40.295a15.178 15.178 0 00-.709-2.797v-8.39zM36.79 45.786a5.627 5.627 0 002.288-1.54h1.44v3.73h-2.984a8.992 8.992 0 00-.744-2.19zm1.757-6.153l.083 1.195a3.736 3.736 0 01-2.89 3.326c-1.168-1.424-2.768-2.39-4.564-2.638-.17-3.792-1.447-7.29-3.535-9.74a13.625 13.625 0 003.617-2.252c4.27 2.046 6.786 5.528 7.289 10.108v.001zm-6.43-35.47a4.66 4.66 0 012.352 8.685 13.014 13.014 0 00-2.61-3.664 13.483 13.483 0 00-3.815-2.627 4.67 4.67 0 014.074-2.395zM5.085 8.822a4.661 4.661 0 018.735-2.266 13.48 13.48 0 00-3.815 2.627 13.008 13.008 0 00-2.61 3.664 4.671 4.671 0 01-2.31-4.025zm6.227 1.69c2.365-2.325 5.692-3.554 9.62-3.554 3.928 0 7.255 1.23 9.62 3.555 2.213 2.175 3.431 5.217 3.431 8.564 0 3.346-1.218 6.387-3.43 8.563-2.366 2.326-5.692 3.555-9.62 3.555-3.929 0-7.256-1.23-9.62-3.555-2.213-2.175-3.431-5.217-3.431-8.563 0-3.347 1.218-6.389 3.43-8.564zM3.232 40.829l.084-1.195c.502-4.581 3.018-8.063 7.288-10.109a13.63 13.63 0 003.636 2.26c-2.082 2.45-3.362 5.958-3.533 9.731-1.797.248-3.399 1.217-4.567 2.642a3.736 3.736 0 01-2.908-3.33zm8.388 15.538c-3.084 0-5.593-2.928-5.593-6.526s2.509-6.525 5.593-6.525 5.593 2.927 5.593 6.525c0 3.598-2.509 6.526-5.593 6.526zm9.322-1.865a6.024 6.024 0 01-2.76-.68c.594-1.242.9-2.603.896-3.98 0-4.263-2.841-7.79-6.504-8.32.18-3.635 1.485-6.959 3.583-9.074 1.557.417 3.163.623 4.774.613 1.618.01 3.229-.198 4.79-.617 2.105 2.115 3.411 5.425 3.59 9.079-3.664.528-6.505 4.056-6.505 8.318a9.175 9.175 0 00.895 3.982 6.024 6.024 0 01-2.76.68zm9.322 1.865c-3.084 0-5.593-2.928-5.593-6.526s2.509-6.525 5.593-6.525 5.593 2.927 5.593 6.525c0 3.598-2.509 6.526-5.593 6.526zm7.458-6.526h3.728a.932.932 0 00.933-.932v-5.593a.932.932 0 00-.933-.932h-1.263c.17-.481.275-.983.308-1.493a.918.918 0 000-.126l-.017-.246h3.769v11.187h-6.713a9.385 9.385 0 00.188-1.865zm19.576 1.865H46.11V40.518h11.187v11.187z" fill="#fff" fill-opacity=".3"/><path d="M48.908 49.84h5.593a.932.932 0 00.834-1.349l-2.797-5.593a.933.933 0 00-1.667 0l-2.797 5.593a.931.931 0 00.834 1.35zm2.797-4.44l1.288 2.576h-2.577l1.289-2.577z" fill="#fff" fill-opacity=".3"/></svg>