<svg width="82" height="58" fill="none" xmlns="http://www.w3.org/2000/svg"><path d="M10.998 5.326l5.493-.748c3.355-.457 6.659 1.033 8.487 3.83v0c1.829 2.796 5.132 4.286 8.487 3.83v0c3.355-.458 6.658 1.033 8.487 3.829v0c1.829 2.796 5.132 4.287 8.487 3.83v0c3.355-.457 6.658 1.033 8.487 3.83v0c1.828 2.796 5.131 4.286 8.487 3.829v0c3.355-.457 6.658 1.033 8.486 3.83l2.994 4.578M6 15.979l5.492-.748c3.355-.458 6.659 1.033 8.487 3.83v0c1.829 2.795 5.132 4.286 8.487 3.829v0c3.355-.457 6.658 1.033 8.487 3.83v0c1.828 2.796 5.131 4.286 8.487 3.83v0c3.355-.458 6.658 1.032 8.487 3.829v0c1.828 2.796 5.131 4.287 8.486 3.83v0c3.356-.458 6.659 1.033 8.487 3.83l2.994 4.577M1 26.631l5.493-.748c3.355-.457 6.659 1.033 8.487 3.83v0c1.829 2.796 5.132 4.286 8.487 3.83v0c3.355-.458 6.658 1.033 8.487 3.829v0c1.828 2.796 5.132 4.287 8.487 3.83v0c3.355-.457 6.658 1.033 8.487 3.83v0c1.828 2.796 5.131 4.286 8.486 3.829v0c3.356-.457 6.659 1.033 8.487 3.83l2.994 4.578" stroke="#ECECEC" stroke-width="2"/></svg>