<svg width="118" height="50" fill="none" xmlns="http://www.w3.org/2000/svg"><path d="M1.6 9.255l7.305-4.51a13.416 13.416 0 0114.462.234v0a13.415 13.415 0 0014.461.234v0a13.416 13.416 0 0114.462.234v0a13.416 13.416 0 0014.461.235v0a13.415 13.415 0 0114.462.234v0a13.416 13.416 0 0014.461.234v0a13.416 13.416 0 0114.462.234l7.155 4.745M1.3 27.766l7.306-4.51a13.415 13.415 0 0114.461.234v0a13.415 13.415 0 0014.462.234v0a13.415 13.415 0 0114.461.234v0a13.416 13.416 0 0014.462.234v0a13.415 13.415 0 0114.461.235v0a13.416 13.416 0 0014.462.234v0a13.416 13.416 0 0114.461.234l7.156 4.745M1 46.277l7.306-4.51A13.416 13.416 0 0122.767 42v0a13.415 13.415 0 0014.462.235v0a13.416 13.416 0 0114.461.234v0a13.415 13.415 0 0014.462.234v0a13.415 13.415 0 0114.461.234v0a13.415 13.415 0 0014.462.234v0a13.415 13.415 0 0114.461.235l7.156 4.744" stroke="#122856" stroke-width="2"/></svg>