<svg width="52" height="52" fill="none" xmlns="http://www.w3.org/2000/svg"><g clip-path="url(#clip0)" fill="#fff" fill-opacity=".3"><path d="M25.963 47.03a3.287 3.287 0 100-6.574 3.287 3.287 0 000 6.574zM51.028 15.988C44.48 8.964 35.614 5.095 26.062 5.095c-9.552 0-18.417 3.869-24.965 10.893a1.992 1.992 0 002.915 2.717c5.785-6.207 13.616-9.626 22.05-9.626 8.435 0 16.265 3.419 22.05 9.626.393.42.925.634 1.459.634a1.992 1.992 0 001.457-3.35z"/><path d="M43.712 24.215c-4.84-4.876-11.108-7.561-17.65-7.56-6.544 0-12.812 2.685-17.65 7.56a1.992 1.992 0 102.828 2.807c4.085-4.116 9.348-6.383 14.822-6.384 5.473 0 10.736 2.267 14.822 6.384a1.987 1.987 0 002.818.01c.78-.774.785-2.036.01-2.817zM35.74 32.467c-2.592-2.568-6.308-4.163-9.696-4.163h-.147c-3.389 0-7.104 1.595-9.696 4.163a1.992 1.992 0 002.804 2.83c1.845-1.828 4.55-3.009 6.892-3.009h.146c2.342 0 5.047 1.181 6.892 3.009a1.992 1.992 0 102.804-2.83z"/></g><defs><clipPath id="clip0"><path fill="#fff" transform="translate(.562 .563)" d="M0 0h51v51H0z"/></clipPath></defs></svg>